<?xml version="1.0" encoding="UTF-8"?>
<svg width="450" height="85" version="1.1" xmlns="http://www.w3.org/2000/svg">
  <defs>
    <clipPath id="clipPath8217-1">
      <rect x="26.501" y="68.846" width="191.14" height="238.27" fill="none" stroke="#000" stroke-linecap="round" stroke-linejoin="round" stroke-width="7.0735"/>
    </clipPath>
    <clipPath id="clipPath8439-4">
      <rect x="303.89" y="72.747" width="191.14" height="238.27" fill="none" stroke="#000" stroke-linecap="round" stroke-linejoin="round" stroke-width="7.0735"/>
    </clipPath>
    <clipPath id="clipPath11199-9">
      <rect x="176.6" y="30.884" width="191.14" height="238.27" fill="none" stroke="#000" stroke-linecap="round" stroke-linejoin="round" stroke-width="7.0735"/>
    </clipPath>
    <clipPath id="clipPath9404-8">
      <path d="m256.31 34.586c-28.223 0.26413-56.464 3.1096-84.688 8.7188-1.1429 10.667-2.17 21.333-3.0938 32-40.605-2.8075-81.208-0.50725-121.81 7.5625-8.3119 77.578-11.484 155.17 0 232.75 60.21 14.681 120.42 12.433 180.62 0 1.024-10.104 1.9954-20.246 2.875-30.406 23.874 1.7486 47.751 1.1853 71.625-1.2812 0.99482 9.6766 2.1926 19.355 3.625 29.031 60.21 14.681 120.42 12.433 180.62 0 7.5635-74.63 12.112-150.45 0-232.75-43.38-8.1439-86.745-10.74-130.12-7.0938-1.0061-9.8495-2.2422-19.78-3.7188-29.812-31.986-6.005-63.951-9.0181-95.938-8.7188z" fill="none" stroke="#000" stroke-linecap="round" stroke-linejoin="round" stroke-width="5.8922"/>
    </clipPath>
  </defs>
  <g transform="translate(1004 -133.07)">
    <g transform="matrix(.15254 0 0 .15254 -590.57 110.66)" stroke="#000">
      <g transform="translate(-911.13 245.35)" clip-path="url(#clipPath9404-8)">
        <rect x="27.776" y="27.342" width="469.37" height="283.68" fill="#00f"/>
        <g>
          <path d="m57.456 269.61 144.25-173.19 48.631 50.905 36.835-33.365 47.559 53.242 28.269-16.378 59.515 72.794z" fill="#93ac93"/>
          <path d="m201.82 96.469-43.607 52.238 4.2143 20.251 19.714-10.198 2.5714 18.541 14.571-11.125 14.5 17.257 6.5714-23.575 15.643 11.125 2.1304-16.321 10.224 5.2912-2.1045-16.748z" fill="#b7c8b7"/>
          <path d="m287 113.61-27.536 25.274 2.7857 12.929 14.536-7.7868 10.964 15.059 9.2143-15.122 14.75 9.3389 1.5893-9.8309z" fill="#b7c8b7"/>
          <path d="m286.79 113.61-14.732 13.482-0.71429 8.6607 8.9286-5.8929 4.6429 6.4286 3.9286-6.7857 6.6749 1.332 0.31174-7.2248z" fill="#fff"/>
          <path d="m201.7 96.648-24.018 28.661 0.17857 10.536 11.071-7.5 2.5893 9.2857 8.2711-10.016 7.7103 5.0554 4.6436-6.379 8.6392 4.8141 4.3296-10.082z" fill="#fff"/>
          <path d="m362.89 151.47-17.179 9.7378-4.5357 15.251 12.214-7.3404 4.0945 13.135 8.5771-11.309 9.5427 6.7154 0.64285-10.346z" fill="#b7c8b7"/>
        </g>
        <path transform="matrix(2.246 0 0 2.246 -212.61 -134.56)" d="m150.51 111.41c0 5.8579-4.7487 10.607-10.607 10.607-5.8579 0-10.607-4.7487-10.607-10.607s4.7487-10.607 10.607-10.607c5.8579 0 10.607 4.7487 10.607 10.607z" fill="#cf0" filter="url(#filter3757)"/>
        <path d="m26.264 189.94c87.884 7.9963 168.26 26.008 233.35 64.397l1.0102 72.822-231.05-1.6506z" fill="#164716"/>
        <path d="m197.25 234.08v17.744" fill="#445016" stroke-linecap="round" stroke-width="5.9"/>
        <path transform="matrix(.64444 0 0 .58433 -32.204 234.91)" d="m174.96-104.7c0 18.232-14.78 33.012-33.012 33.012s-33.012-14.78-33.012-33.012c0-18.232 14.78-33.012 33.012-33.012s33.012 14.78 33.012 33.012z" fill="#478119"/>
        <path transform="matrix(.64444 0 0 .58433 -16.065 241.56)" d="m174.96-104.7c0 18.232-14.78 33.012-33.012 33.012s-33.012-14.78-33.012-33.012c0-18.232 14.78-33.012 33.012-33.012s33.012 14.78 33.012 33.012z" fill="#476d19"/>
        <g fill="#478119">
          <path transform="matrix(.64444 0 0 .58433 30.886 241.56)" d="m174.96-104.7c0 18.232-14.78 33.012-33.012 33.012s-33.012-14.78-33.012-33.012c0-18.232 14.78-33.012 33.012-33.012s33.012 14.78 33.012 33.012z"/>
          <path transform="matrix(.64444 0 0 .58433 55.828 253.54)" d="m174.96-104.7c0 18.232-14.78 33.012-33.012 33.012s-33.012-14.78-33.012-33.012c0-18.232 14.78-33.012 33.012-33.012s33.012 14.78 33.012 33.012z"/>
          <path transform="matrix(.64444 0 0 .58433 22.082 266.84)" d="m174.96-104.7c0 18.232-14.78 33.012-33.012 33.012s-33.012-14.78-33.012-33.012c0-18.232 14.78-33.012 33.012-33.012s33.012 14.78 33.012 33.012z"/>
        </g>
        <path d="m61.485 213.04v17.744" fill="#445016" stroke-linecap="round" stroke-width="5"/>
        <g>
          <path transform="matrix(.64444 0 0 .58433 -29.269 268.17)" d="m174.96-104.7c0 18.232-14.78 33.012-33.012 33.012s-33.012-14.78-33.012-33.012c0-18.232 14.78-33.012 33.012-33.012s33.012 14.78 33.012 33.012z" fill="#478119"/>
          <path transform="matrix(.64444 0 0 .58433 -4.327 254.87)" d="m174.96-104.7c0 18.232-14.78 33.012-33.012 33.012s-33.012-14.78-33.012-33.012c0-18.232 14.78-33.012 33.012-33.012s33.012 14.78 33.012 33.012z" fill="#3d7535"/>
          <path transform="matrix(.64444 0 0 .58433 1.5418 241.56)" d="m174.96-104.7c0 18.232-14.78 33.012-33.012 33.012s-33.012-14.78-33.012-33.012c0-18.232 14.78-33.012 33.012-33.012s33.012 14.78 33.012 33.012z" fill="#328a33"/>
          <path transform="matrix(.64444 0 0 .58433 26.484 258.86)" d="m174.96-104.7c0 18.232-14.78 33.012-33.012 33.012s-33.012-14.78-33.012-33.012c0-18.232 14.78-33.012 33.012-33.012s33.012 14.78 33.012 33.012z" fill="#668130"/>
          <path transform="matrix(.64444 0 0 .58433 48.492 268.17)" d="m174.96-104.7c0 18.232-14.78 33.012-33.012 33.012s-33.012-14.78-33.012-33.012c0-18.232 14.78-33.012 33.012-33.012s33.012 14.78 33.012 33.012z" fill="#506c2a"/>
          <path transform="matrix(.64444 0 0 .58433 71.967 264.18)" d="m174.96-104.7c0 18.232-14.78 33.012-33.012 33.012s-33.012-14.78-33.012-33.012c0-18.232 14.78-33.012 33.012-33.012s33.012 14.78 33.012 33.012z" fill="#1e8c31"/>
          <path transform="matrix(.64444 0 0 .58433 89.573 257.53)" d="m174.96-104.7c0 18.232-14.78 33.012-33.012 33.012s-33.012-14.78-33.012-33.012c0-18.232 14.78-33.012 33.012-33.012s33.012 14.78 33.012 33.012z" fill="#2f7336"/>
          <path transform="matrix(.64444 0 0 .58433 108.65 272.16)" d="m174.96-104.7c0 18.232-14.78 33.012-33.012 33.012s-33.012-14.78-33.012-33.012c0-18.232 14.78-33.012 33.012-33.012s33.012 14.78 33.012 33.012z" fill="#478119"/>
          <path transform="matrix(.64444 0 0 .58433 105.71 285.46)" d="m174.96-104.7c0 18.232-14.78 33.012-33.012 33.012s-33.012-14.78-33.012-33.012c0-18.232 14.78-33.012 33.012-33.012s33.012 14.78 33.012 33.012z" fill="#479019"/>
        </g>
        <path d="m216.64 225v17.744" fill="#445016" stroke-linecap="round" stroke-width="5.9"/>
        <path d="m171.25 231.19v17.744" fill="#445016" stroke-linecap="round" stroke-width="5.9"/>
        <path transform="matrix(.64444 0 0 .58433 79.303 284.13)" d="m174.96-104.7c0 18.232-14.78 33.012-33.012 33.012s-33.012-14.78-33.012-33.012c0-18.232 14.78-33.012 33.012-33.012s33.012 14.78 33.012 33.012z" fill="#329432"/>
        <path d="m111.41 231.61v17.744" fill="#445016" stroke-linecap="round" stroke-width="5.9"/>
        <path transform="matrix(.64444 0 0 .58433 20.615 281.47)" d="m174.96-104.7c0 18.232-14.78 33.012-33.012 33.012s-33.012-14.78-33.012-33.012c0-18.232 14.78-33.012 33.012-33.012s33.012 14.78 33.012 33.012z" fill="#478119"/>
        <path d="m88.307 221.7v17.744" fill="#445016" stroke-linecap="round" stroke-width="6.6"/>
        <path transform="matrix(.64444 0 0 .58433 -2.2179 273.9)" d="m174.96-104.7c0 18.232-14.78 33.012-33.012 33.012s-33.012-14.78-33.012-33.012c0-18.232 14.78-33.012 33.012-33.012s33.012 14.78 33.012 33.012z" fill="#477219"/>
        <path d="m47.042 206.02v17.744" fill="#445016" stroke-linecap="round" stroke-width="5.9"/>
        <path transform="matrix(.64444 0 0 .58433 -43.941 257.53)" d="m174.96-104.7c0 18.232-14.78 33.012-33.012 33.012s-33.012-14.78-33.012-33.012c0-18.232 14.78-33.012 33.012-33.012s33.012 14.78 33.012 33.012z" fill="#479719"/>
        <path d="m139.06 227.48v17.744" fill="#445016" stroke-linecap="round" stroke-width="5.9"/>
        <g>
          <path transform="matrix(.64444 0 0 .58433 48.492 278.81)" d="m174.96-104.7c0 18.232-14.78 33.012-33.012 33.012s-33.012-14.78-33.012-33.012c0-18.232 14.78-33.012 33.012-33.012s33.012 14.78 33.012 33.012z" fill="#566a2f"/>
          <path transform="matrix(.64444 0 0 .58433 124.79 270.83)" d="m174.96-104.7c0 18.232-14.78 33.012-33.012 33.012s-33.012-14.78-33.012-33.012c0-18.232 14.78-33.012 33.012-33.012s33.012 14.78 33.012 33.012z" fill="#479d19"/>
          <path transform="matrix(.64444 0 0 .58433 144.04 280.63)" d="m174.96-104.7c0 18.232-14.78 33.012-33.012 33.012s-33.012-14.78-33.012-33.012c0-18.232 14.78-33.012 33.012-33.012s33.012 14.78 33.012 33.012z" fill="#2f7336"/>
          <path transform="matrix(.64444 0 0 .58433 158.99 295.27)" d="m174.96-104.7c0 18.232-14.78 33.012-33.012 33.012s-33.012-14.78-33.012-33.012c0-18.232 14.78-33.012 33.012-33.012s33.012 14.78 33.012 33.012z" fill="#478119"/>
        </g>
        <path d="m497.14 183.34c-239.04 45.738-380.29 96.5-457.59 142.18l457.59 3.3012z" fill="#0a0"/>
        <g transform="translate(40.439 -4.9518)">
          <path d="m292.84 226.82 24.869-23.571" fill="none" stroke-linecap="round" stroke-width="2"/>
          <path d="m389.43 208.21 0.16108 25.584-45.83 16.325-0.35222-24.444z" fill="#540" stroke-linecap="round" stroke-linejoin="round"/>
          <path d="m293.33 247.28 7.3814 32.23 44.991 11.374 30.389-6.9894 37.583-34.377-24.391-15.722-46.036 11.185z" fill-opacity=".27451" filter="url(#filter3851)"/>
          <path d="m343.73 249.94-47.909-0.14589 0.0152-25.739 21.304-20.982 27.143 23.441z" fill="#540"/>
          <path d="m366.19 191.45s-13.522 3.7854-20.279 5.6898c-5.4266 1.5293-8.7861 6.2734-7.8782 6.2734-0.73149 3.9305 1.0733 6.2309 1.8966 7.4406 3.161 1.5562 5.8844 3.2583 9.0454 4.8145 4.1336-0.29179 7.1001-0.72946 11.234-1.0212 2.1398-1.1671 4.2795-2.3343 6.4193-3.5014 1.7507-1.7994 3.5014-3.5987 5.2522-5.398 0.0973-2.3829 0.19452-4.7658 0.29179-7.1488-1.9939-2.3829-3.9878-4.7658-5.9816-7.1488z" fill="#3b3e43" filter="url(#filter3813)"/>
          <path d="m317.74 203.27 53.456-16.483 24.125 24.255-47.982 17.052z" stroke-linecap="round" stroke-linejoin="round" stroke-width="2"/>
          <rect x="323.83" y="232.84" width="11.554" height="16.919" fill="#2b2200"/>
          <rect x="323.83" y="232.84" width="11.554" height="16.919" fill="#540" filter="url(#filter3841)"/>
        </g>
      </g>
      <path d="m-654.81 279.94c-28.223 0.26413-56.464 3.1096-84.688 8.7188-1.1429 10.667-2.17 21.333-3.0938 32-40.605-2.8075-81.208-0.50725-121.81 7.5625-8.3119 77.578-11.484 155.17 0 232.75 60.21 14.681 120.42 12.433 180.62 0 1.024-10.104 1.9954-20.246 2.875-30.406 23.874 1.7486 47.751 1.1853 71.625-1.2812 0.99482 9.6766 2.1926 19.355 3.625 29.031 60.21 14.681 120.42 12.433 180.62 0 7.5635-74.63 12.112-150.45 0-232.75-43.38-8.1439-86.745-10.74-130.12-7.0938-1.0061-9.8495-2.2422-19.78-3.7188-29.812-31.986-6.005-63.951-9.0181-95.938-8.7188z" fill="none" stroke-linecap="round" stroke-linejoin="round" stroke-width="5.8922"/>
    </g>
    <path d="m-786.92 168.74 29.773 0.3777-0.051-5.9168 18.506 12.664-18.38 12.071-0.0749-5.2874-29.773-0.3776z" fill="#006500" stroke="#0f0" stroke-linecap="round" stroke-linejoin="round" stroke-width="1.0068"/>
    <g transform="matrix(.15254 0 0 .15254 -1057.6 146.55)">
      <g transform="translate(1254.4 481.61)" stroke="#000">
        <g transform="translate(-320.21 -481.97)" clip-path="url(#clipPath8217-1)">
          <rect x="26.125" y="65.306" width="471.02" height="245.71" fill="#00f"/>
          <g>
            <path d="m57.456 269.61 144.25-173.19 48.631 50.905 36.835-33.365 47.559 53.242 28.269-16.378 59.515 72.794z" fill="#93ac93"/>
            <path d="m201.82 96.469-43.607 52.238 4.2143 20.251 19.714-10.198 2.5714 18.541 14.571-11.125 14.5 17.257 6.5714-23.575 15.643 11.125 2.1304-16.321 10.224 5.2912-2.1045-16.748z" fill="#b7c8b7"/>
            <path d="m287 113.61-27.536 25.274 2.7857 12.929 14.536-7.7868 10.964 15.059 9.2143-15.122 14.75 9.3389 1.5893-9.8309z" fill="#b7c8b7"/>
            <path d="m286.79 113.61-14.732 13.482-0.71429 8.6607 8.9286-5.8929 4.6429 6.4286 3.9286-6.7857 6.6749 1.332 0.31174-7.2248z" fill="#fff"/>
            <path d="m201.7 96.648-24.018 28.661 0.17857 10.536 11.071-7.5 2.5893 9.2857 8.2711-10.016 7.7103 5.0554 4.6436-6.379 8.6392 4.8141 4.3296-10.082z" fill="#fff"/>
            <path d="m362.89 151.47-17.179 9.7378-4.5357 15.251 12.214-7.3404 4.0945 13.135 8.5771-11.309 9.5427 6.7154 0.64285-10.346z" fill="#b7c8b7"/>
          </g>
          <path transform="matrix(2.246 0 0 2.246 -212.61 -134.56)" d="m150.51 111.41c0 5.8579-4.7487 10.607-10.607 10.607-5.8579 0-10.607-4.7487-10.607-10.607s4.7487-10.607 10.607-10.607c5.8579 0 10.607 4.7487 10.607 10.607z" fill="#cf0" filter="url(#filter3757)"/>
          <path d="m26.264 189.94c87.884 7.9963 168.26 26.008 233.35 64.397l1.0102 56.316h-234.36z" fill="#164716"/>
          <path d="m197.25 234.08v17.744" fill="#445016" stroke-linecap="round" stroke-width="5.9"/>
          <path transform="matrix(.64444 0 0 .58433 -32.204 234.91)" d="m174.96-104.7c0 18.232-14.78 33.012-33.012 33.012s-33.012-14.78-33.012-33.012c0-18.232 14.78-33.012 33.012-33.012s33.012 14.78 33.012 33.012z" fill="#478119"/>
          <path transform="matrix(.64444 0 0 .58433 -16.065 241.56)" d="m174.96-104.7c0 18.232-14.78 33.012-33.012 33.012s-33.012-14.78-33.012-33.012c0-18.232 14.78-33.012 33.012-33.012s33.012 14.78 33.012 33.012z" fill="#476d19"/>
          <g fill="#478119">
            <path transform="matrix(.64444 0 0 .58433 30.886 241.56)" d="m174.96-104.7c0 18.232-14.78 33.012-33.012 33.012s-33.012-14.78-33.012-33.012c0-18.232 14.78-33.012 33.012-33.012s33.012 14.78 33.012 33.012z"/>
            <path transform="matrix(.64444 0 0 .58433 55.828 253.54)" d="m174.96-104.7c0 18.232-14.78 33.012-33.012 33.012s-33.012-14.78-33.012-33.012c0-18.232 14.78-33.012 33.012-33.012s33.012 14.78 33.012 33.012z"/>
            <path transform="matrix(.64444 0 0 .58433 22.082 266.84)" d="m174.96-104.7c0 18.232-14.78 33.012-33.012 33.012s-33.012-14.78-33.012-33.012c0-18.232 14.78-33.012 33.012-33.012s33.012 14.78 33.012 33.012z"/>
          </g>
          <path d="m61.485 213.04v17.744" fill="#445016" stroke-linecap="round" stroke-width="5"/>
          <g>
            <path transform="matrix(.64444 0 0 .58433 -29.269 268.17)" d="m174.96-104.7c0 18.232-14.78 33.012-33.012 33.012s-33.012-14.78-33.012-33.012c0-18.232 14.78-33.012 33.012-33.012s33.012 14.78 33.012 33.012z" fill="#478119"/>
            <path transform="matrix(.64444 0 0 .58433 -4.327 254.87)" d="m174.96-104.7c0 18.232-14.78 33.012-33.012 33.012s-33.012-14.78-33.012-33.012c0-18.232 14.78-33.012 33.012-33.012s33.012 14.78 33.012 33.012z" fill="#3d7535"/>
            <path transform="matrix(.64444 0 0 .58433 1.5418 241.56)" d="m174.96-104.7c0 18.232-14.78 33.012-33.012 33.012s-33.012-14.78-33.012-33.012c0-18.232 14.78-33.012 33.012-33.012s33.012 14.78 33.012 33.012z" fill="#328a33"/>
            <path transform="matrix(.64444 0 0 .58433 26.484 258.86)" d="m174.96-104.7c0 18.232-14.78 33.012-33.012 33.012s-33.012-14.78-33.012-33.012c0-18.232 14.78-33.012 33.012-33.012s33.012 14.78 33.012 33.012z" fill="#668130"/>
            <path transform="matrix(.64444 0 0 .58433 48.492 268.17)" d="m174.96-104.7c0 18.232-14.78 33.012-33.012 33.012s-33.012-14.78-33.012-33.012c0-18.232 14.78-33.012 33.012-33.012s33.012 14.78 33.012 33.012z" fill="#506c2a"/>
            <path transform="matrix(.64444 0 0 .58433 71.967 264.18)" d="m174.96-104.7c0 18.232-14.78 33.012-33.012 33.012s-33.012-14.78-33.012-33.012c0-18.232 14.78-33.012 33.012-33.012s33.012 14.78 33.012 33.012z" fill="#1e8c31"/>
            <path transform="matrix(.64444 0 0 .58433 89.573 257.53)" d="m174.96-104.7c0 18.232-14.78 33.012-33.012 33.012s-33.012-14.78-33.012-33.012c0-18.232 14.78-33.012 33.012-33.012s33.012 14.78 33.012 33.012z" fill="#2f7336"/>
            <path transform="matrix(.64444 0 0 .58433 108.65 272.16)" d="m174.96-104.7c0 18.232-14.78 33.012-33.012 33.012s-33.012-14.78-33.012-33.012c0-18.232 14.78-33.012 33.012-33.012s33.012 14.78 33.012 33.012z" fill="#478119"/>
            <path transform="matrix(.64444 0 0 .58433 105.71 285.46)" d="m174.96-104.7c0 18.232-14.78 33.012-33.012 33.012s-33.012-14.78-33.012-33.012c0-18.232 14.78-33.012 33.012-33.012s33.012 14.78 33.012 33.012z" fill="#479019"/>
          </g>
          <path d="m216.64 225v17.744" fill="#445016" stroke-linecap="round" stroke-width="5.9"/>
          <path d="m171.25 231.19v17.744" fill="#445016" stroke-linecap="round" stroke-width="5.9"/>
          <path transform="matrix(.64444 0 0 .58433 79.303 284.13)" d="m174.96-104.7c0 18.232-14.78 33.012-33.012 33.012s-33.012-14.78-33.012-33.012c0-18.232 14.78-33.012 33.012-33.012s33.012 14.78 33.012 33.012z" fill="#329432"/>
          <path d="m111.41 231.61v17.744" fill="#445016" stroke-linecap="round" stroke-width="5.9"/>
          <path transform="matrix(.64444 0 0 .58433 20.615 281.47)" d="m174.96-104.7c0 18.232-14.78 33.012-33.012 33.012s-33.012-14.78-33.012-33.012c0-18.232 14.78-33.012 33.012-33.012s33.012 14.78 33.012 33.012z" fill="#478119"/>
          <path d="m88.307 221.7v17.744" fill="#445016" stroke-linecap="round" stroke-width="6.6"/>
          <path transform="matrix(.64444 0 0 .58433 -2.2179 273.9)" d="m174.96-104.7c0 18.232-14.78 33.012-33.012 33.012s-33.012-14.78-33.012-33.012c0-18.232 14.78-33.012 33.012-33.012s33.012 14.78 33.012 33.012z" fill="#477219"/>
          <path d="m47.042 206.02v17.744" fill="#445016" stroke-linecap="round" stroke-width="5.9"/>
          <path transform="matrix(.64444 0 0 .58433 -43.941 257.53)" d="m174.96-104.7c0 18.232-14.78 33.012-33.012 33.012s-33.012-14.78-33.012-33.012c0-18.232 14.78-33.012 33.012-33.012s33.012 14.78 33.012 33.012z" fill="#479719"/>
          <path d="m139.06 227.48v17.744" fill="#445016" stroke-linecap="round" stroke-width="5.9"/>
          <g>
            <path transform="matrix(.64444 0 0 .58433 48.492 278.81)" d="m174.96-104.7c0 18.232-14.78 33.012-33.012 33.012s-33.012-14.78-33.012-33.012c0-18.232 14.78-33.012 33.012-33.012s33.012 14.78 33.012 33.012z" fill="#566a2f"/>
            <path transform="matrix(.64444 0 0 .58433 124.79 270.83)" d="m174.96-104.7c0 18.232-14.78 33.012-33.012 33.012s-33.012-14.78-33.012-33.012c0-18.232 14.78-33.012 33.012-33.012s33.012 14.78 33.012 33.012z" fill="#479d19"/>
            <path transform="matrix(.64444 0 0 .58433 144.04 280.63)" d="m174.96-104.7c0 18.232-14.78 33.012-33.012 33.012s-33.012-14.78-33.012-33.012c0-18.232 14.78-33.012 33.012-33.012s33.012 14.78 33.012 33.012z" fill="#2f7336"/>
            <path transform="matrix(.64444 0 0 .58433 158.99 295.27)" d="m174.96-104.7c0 18.232-14.78 33.012-33.012 33.012s-33.012-14.78-33.012-33.012c0-18.232 14.78-33.012 33.012-33.012s33.012 14.78 33.012 33.012z" fill="#478119"/>
          </g>
          <path d="m497.14 183.34c-239.04 45.738-345.63 81.645-422.93 127.32h422.93z" fill="#0a0"/>
          <g transform="translate(40.439 -4.9518)">
            <path d="m292.84 226.82 24.869-23.571" fill="none" stroke-linecap="round" stroke-width="2"/>
            <path d="m389.43 208.21 0.16108 25.584-45.83 16.325-0.35222-24.444z" fill="#540" stroke-linecap="round" stroke-linejoin="round"/>
            <path d="m293.33 247.28 7.3814 32.23 44.991 11.374 30.389-6.9894 37.583-34.377-24.391-15.722-46.036 11.185z" fill-opacity=".27451" filter="url(#filter3851)"/>
            <path d="m343.73 249.94-47.909-0.14589 0.0152-25.739 21.304-20.982 27.143 23.441z" fill="#540"/>
            <path d="m366.19 191.45s-13.522 3.7854-20.279 5.6898c-5.4266 1.5293-8.7861 6.2734-7.8782 6.2734-0.73149 3.9305 1.0733 6.2309 1.8966 7.4406 3.161 1.5562 5.8844 3.2583 9.0454 4.8145 4.1336-0.29179 7.1001-0.72946 11.234-1.0212 2.1398-1.1671 4.2795-2.3343 6.4193-3.5014 1.7507-1.7994 3.5014-3.5987 5.2522-5.398 0.0973-2.3829 0.19452-4.7658 0.29179-7.1488-1.9939-2.3829-3.9878-4.7658-5.9816-7.1488z" fill="#3b3e43" filter="url(#filter3813)"/>
            <path d="m317.74 203.27 53.456-16.483 24.125 24.255-47.982 17.052z" stroke-linecap="round" stroke-linejoin="round" stroke-width="2"/>
            <rect x="323.83" y="232.84" width="11.554" height="16.919" fill="#2b2200"/>
            <rect x="323.83" y="232.84" width="11.554" height="16.919" fill="#540" filter="url(#filter3841)"/>
          </g>
        </g>
        <rect x="-296.92" y="-409.83" width="191.14" height="238.27" fill="none" stroke-linecap="round" stroke-linejoin="round" stroke-width="7.0735"/>
      </g>
      <g transform="translate(792.28)">
        <g transform="translate(376.33 -.36259)" clip-path="url(#clipPath8439-4)" stroke="#000">
          <rect x="26.125" y="65.306" width="471.02" height="245.71" fill="#00f"/>
          <g>
            <path d="m57.456 269.61 144.25-173.19 48.631 50.905 36.835-33.365 47.559 53.242 28.269-16.378 59.515 72.794z" fill="#93ac93"/>
            <path d="m201.82 96.469-43.607 52.238 4.2143 20.251 19.714-10.198 2.5714 18.541 14.571-11.125 14.5 17.257 6.5714-23.575 15.643 11.125 2.1304-16.321 10.224 5.2912-2.1045-16.748z" fill="#b7c8b7"/>
            <path d="m287 113.61-27.536 25.274 2.7857 12.929 14.536-7.7868 10.964 15.059 9.2143-15.122 14.75 9.3389 1.5893-9.8309z" fill="#b7c8b7"/>
            <path d="m286.79 113.61-14.732 13.482-0.71429 8.6607 8.9286-5.8929 4.6429 6.4286 3.9286-6.7857 6.6749 1.332 0.31174-7.2248z" fill="#fff"/>
            <path d="m201.7 96.648-24.018 28.661 0.17857 10.536 11.071-7.5 2.5893 9.2857 8.2711-10.016 7.7103 5.0554 4.6436-6.379 8.6392 4.8141 4.3296-10.082z" fill="#fff"/>
            <path d="m362.89 151.47-17.179 9.7378-4.5357 15.251 12.214-7.3404 4.0945 13.135 8.5771-11.309 9.5427 6.7154 0.64285-10.346z" fill="#b7c8b7"/>
          </g>
          <path transform="matrix(2.246 0 0 2.246 -212.61 -134.56)" d="m150.51 111.41c0 5.8579-4.7487 10.607-10.607 10.607-5.8579 0-10.607-4.7487-10.607-10.607s4.7487-10.607 10.607-10.607c5.8579 0 10.607 4.7487 10.607 10.607z" fill="#cf0" filter="url(#filter3757)"/>
          <path d="m26.264 189.94c87.884 7.9963 168.26 26.008 233.35 64.397l1.0102 56.316h-234.36z" fill="#164716"/>
          <path d="m197.25 234.08v17.744" fill="#445016" stroke-linecap="round" stroke-width="5.9"/>
          <path transform="matrix(.64444 0 0 .58433 -32.204 234.91)" d="m174.96-104.7c0 18.232-14.78 33.012-33.012 33.012s-33.012-14.78-33.012-33.012c0-18.232 14.78-33.012 33.012-33.012s33.012 14.78 33.012 33.012z" fill="#478119"/>
          <path transform="matrix(.64444 0 0 .58433 -16.065 241.56)" d="m174.96-104.7c0 18.232-14.78 33.012-33.012 33.012s-33.012-14.78-33.012-33.012c0-18.232 14.78-33.012 33.012-33.012s33.012 14.78 33.012 33.012z" fill="#476d19"/>
          <g fill="#478119">
            <path transform="matrix(.64444 0 0 .58433 30.886 241.56)" d="m174.96-104.7c0 18.232-14.78 33.012-33.012 33.012s-33.012-14.78-33.012-33.012c0-18.232 14.78-33.012 33.012-33.012s33.012 14.78 33.012 33.012z"/>
            <path transform="matrix(.64444 0 0 .58433 55.828 253.54)" d="m174.96-104.7c0 18.232-14.78 33.012-33.012 33.012s-33.012-14.78-33.012-33.012c0-18.232 14.78-33.012 33.012-33.012s33.012 14.78 33.012 33.012z"/>
            <path transform="matrix(.64444 0 0 .58433 22.082 266.84)" d="m174.96-104.7c0 18.232-14.78 33.012-33.012 33.012s-33.012-14.78-33.012-33.012c0-18.232 14.78-33.012 33.012-33.012s33.012 14.78 33.012 33.012z"/>
          </g>
          <path d="m61.485 213.04v17.744" fill="#445016" stroke-linecap="round" stroke-width="5"/>
          <g>
            <path transform="matrix(.64444 0 0 .58433 -29.269 268.17)" d="m174.96-104.7c0 18.232-14.78 33.012-33.012 33.012s-33.012-14.78-33.012-33.012c0-18.232 14.78-33.012 33.012-33.012s33.012 14.78 33.012 33.012z" fill="#478119"/>
            <path transform="matrix(.64444 0 0 .58433 -4.327 254.87)" d="m174.96-104.7c0 18.232-14.78 33.012-33.012 33.012s-33.012-14.78-33.012-33.012c0-18.232 14.78-33.012 33.012-33.012s33.012 14.78 33.012 33.012z" fill="#3d7535"/>
            <path transform="matrix(.64444 0 0 .58433 1.5418 241.56)" d="m174.96-104.7c0 18.232-14.78 33.012-33.012 33.012s-33.012-14.78-33.012-33.012c0-18.232 14.78-33.012 33.012-33.012s33.012 14.78 33.012 33.012z" fill="#328a33"/>
            <path transform="matrix(.64444 0 0 .58433 26.484 258.86)" d="m174.96-104.7c0 18.232-14.78 33.012-33.012 33.012s-33.012-14.78-33.012-33.012c0-18.232 14.78-33.012 33.012-33.012s33.012 14.78 33.012 33.012z" fill="#668130"/>
            <path transform="matrix(.64444 0 0 .58433 48.492 268.17)" d="m174.96-104.7c0 18.232-14.78 33.012-33.012 33.012s-33.012-14.78-33.012-33.012c0-18.232 14.78-33.012 33.012-33.012s33.012 14.78 33.012 33.012z" fill="#506c2a"/>
            <path transform="matrix(.64444 0 0 .58433 71.967 264.18)" d="m174.96-104.7c0 18.232-14.78 33.012-33.012 33.012s-33.012-14.78-33.012-33.012c0-18.232 14.78-33.012 33.012-33.012s33.012 14.78 33.012 33.012z" fill="#1e8c31"/>
            <path transform="matrix(.64444 0 0 .58433 89.573 257.53)" d="m174.96-104.7c0 18.232-14.78 33.012-33.012 33.012s-33.012-14.78-33.012-33.012c0-18.232 14.78-33.012 33.012-33.012s33.012 14.78 33.012 33.012z" fill="#2f7336"/>
            <path transform="matrix(.64444 0 0 .58433 108.65 272.16)" d="m174.96-104.7c0 18.232-14.78 33.012-33.012 33.012s-33.012-14.78-33.012-33.012c0-18.232 14.78-33.012 33.012-33.012s33.012 14.78 33.012 33.012z" fill="#478119"/>
            <path transform="matrix(.64444 0 0 .58433 105.71 285.46)" d="m174.96-104.7c0 18.232-14.78 33.012-33.012 33.012s-33.012-14.78-33.012-33.012c0-18.232 14.78-33.012 33.012-33.012s33.012 14.78 33.012 33.012z" fill="#479019"/>
          </g>
          <path d="m216.64 225v17.744" fill="#445016" stroke-linecap="round" stroke-width="5.9"/>
          <path d="m171.25 231.19v17.744" fill="#445016" stroke-linecap="round" stroke-width="5.9"/>
          <path transform="matrix(.64444 0 0 .58433 79.303 284.13)" d="m174.96-104.7c0 18.232-14.78 33.012-33.012 33.012s-33.012-14.78-33.012-33.012c0-18.232 14.78-33.012 33.012-33.012s33.012 14.78 33.012 33.012z" fill="#329432"/>
          <path d="m111.41 231.61v17.744" fill="#445016" stroke-linecap="round" stroke-width="5.9"/>
          <path transform="matrix(.64444 0 0 .58433 20.615 281.47)" d="m174.96-104.7c0 18.232-14.78 33.012-33.012 33.012s-33.012-14.78-33.012-33.012c0-18.232 14.78-33.012 33.012-33.012s33.012 14.78 33.012 33.012z" fill="#478119"/>
          <path d="m88.307 221.7v17.744" fill="#445016" stroke-linecap="round" stroke-width="6.6"/>
          <path transform="matrix(.64444 0 0 .58433 -2.2179 273.9)" d="m174.96-104.7c0 18.232-14.78 33.012-33.012 33.012s-33.012-14.78-33.012-33.012c0-18.232 14.78-33.012 33.012-33.012s33.012 14.78 33.012 33.012z" fill="#477219"/>
          <path d="m47.042 206.02v17.744" fill="#445016" stroke-linecap="round" stroke-width="5.9"/>
          <path transform="matrix(.64444 0 0 .58433 -43.941 257.53)" d="m174.96-104.7c0 18.232-14.78 33.012-33.012 33.012s-33.012-14.78-33.012-33.012c0-18.232 14.78-33.012 33.012-33.012s33.012 14.78 33.012 33.012z" fill="#479719"/>
          <path d="m139.06 227.48v17.744" fill="#445016" stroke-linecap="round" stroke-width="5.9"/>
          <g>
            <path transform="matrix(.64444 0 0 .58433 48.492 278.81)" d="m174.96-104.7c0 18.232-14.78 33.012-33.012 33.012s-33.012-14.78-33.012-33.012c0-18.232 14.78-33.012 33.012-33.012s33.012 14.78 33.012 33.012z" fill="#566a2f"/>
            <path transform="matrix(.64444 0 0 .58433 124.79 270.83)" d="m174.96-104.7c0 18.232-14.78 33.012-33.012 33.012s-33.012-14.78-33.012-33.012c0-18.232 14.78-33.012 33.012-33.012s33.012 14.78 33.012 33.012z" fill="#479d19"/>
            <path transform="matrix(.64444 0 0 .58433 144.04 280.63)" d="m174.96-104.7c0 18.232-14.78 33.012-33.012 33.012s-33.012-14.78-33.012-33.012c0-18.232 14.78-33.012 33.012-33.012s33.012 14.78 33.012 33.012z" fill="#2f7336"/>
            <path transform="matrix(.64444 0 0 .58433 158.99 295.27)" d="m174.96-104.7c0 18.232-14.78 33.012-33.012 33.012s-33.012-14.78-33.012-33.012c0-18.232 14.78-33.012 33.012-33.012s33.012 14.78 33.012 33.012z" fill="#478119"/>
          </g>
          <path d="m497.14 183.34c-239.04 45.738-345.63 81.645-422.93 127.32h422.93z" fill="#0a0"/>
          <g transform="translate(40.439 -4.9518)">
            <path d="m292.84 226.82 24.869-23.571" fill="none" stroke-linecap="round" stroke-width="2"/>
            <path d="m389.43 208.21 0.16108 25.584-45.83 16.325-0.35222-24.444z" fill="#540" stroke-linecap="round" stroke-linejoin="round"/>
            <path d="m293.33 247.28 7.3814 32.23 44.991 11.374 30.389-6.9894 37.583-34.377-24.391-15.722-46.036 11.185z" fill-opacity=".27451" filter="url(#filter3851)"/>
            <path d="m343.73 249.94-47.909-0.14589 0.0152-25.739 21.304-20.982 27.143 23.441z" fill="#540"/>
            <path d="m366.19 191.45s-13.522 3.7854-20.279 5.6898c-5.4266 1.5293-8.7861 6.2734-7.8782 6.2734-0.73149 3.9305 1.0733 6.2309 1.8966 7.4406 3.161 1.5562 5.8844 3.2583 9.0454 4.8145 4.1336-0.29179 7.1001-0.72946 11.234-1.0212 2.1398-1.1671 4.2795-2.3343 6.4193-3.5014 1.7507-1.7994 3.5014-3.5987 5.2522-5.398 0.0973-2.3829 0.19452-4.7658 0.29179-7.1488-1.9939-2.3829-3.9878-4.7658-5.9816-7.1488z" fill="#3b3e43" filter="url(#filter3813)"/>
            <path d="m317.74 203.27 53.456-16.483 24.125 24.255-47.982 17.052z" stroke-linecap="round" stroke-linejoin="round" stroke-width="2"/>
            <rect x="323.83" y="232.84" width="11.554" height="16.919" fill="#2b2200"/>
            <rect x="323.83" y="232.84" width="11.554" height="16.919" fill="#540" filter="url(#filter3841)"/>
          </g>
        </g>
        <rect x="679.4" y="72.384" width="191.14" height="238.27" fill="none" stroke="#000" stroke-linecap="round" stroke-linejoin="round" stroke-width="7.0735"/>
      </g>
      <g transform="translate(261.44 -1115.8)" stroke="#000">
        <g transform="translate(778.9 1154.8)" clip-path="url(#clipPath11199-9)" filter="url(#filter10857)">
          <rect x="27.776" y="27.342" width="469.37" height="283.68" fill="#00f"/>
          <g>
            <path d="m57.456 269.61 144.25-173.19 48.631 50.905 36.835-33.365 47.559 53.242 28.269-16.378 59.515 72.794z" fill="#93ac93"/>
            <path d="m201.82 96.469-43.607 52.238 4.2143 20.251 19.714-10.198 2.5714 18.541 14.571-11.125 14.5 17.257 6.5714-23.575 15.643 11.125 2.1304-16.321 10.224 5.2912-2.1045-16.748z" fill="#b7c8b7"/>
            <path d="m287 113.61-27.536 25.274 2.7857 12.929 14.536-7.7868 10.964 15.059 9.2143-15.122 14.75 9.3389 1.5893-9.8309z" fill="#b7c8b7"/>
            <path d="m286.79 113.61-14.732 13.482-0.71429 8.6607 8.9286-5.8929 4.6429 6.4286 3.9286-6.7857 6.6749 1.332 0.31174-7.2248z" fill="#fff"/>
            <path d="m201.7 96.648-24.018 28.661 0.17857 10.536 11.071-7.5 2.5893 9.2857 8.2711-10.016 7.7103 5.0554 4.6436-6.379 8.6392 4.8141 4.3296-10.082z" fill="#fff"/>
            <path d="m362.89 151.47-17.179 9.7378-4.5357 15.251 12.214-7.3404 4.0945 13.135 8.5771-11.309 9.5427 6.7154 0.64285-10.346z" fill="#b7c8b7"/>
          </g>
          <path transform="matrix(2.246 0 0 2.246 -212.61 -134.56)" d="m150.51 111.41c0 5.8579-4.7487 10.607-10.607 10.607-5.8579 0-10.607-4.7487-10.607-10.607s4.7487-10.607 10.607-10.607c5.8579 0 10.607 4.7487 10.607 10.607z" fill="#cf0" filter="url(#filter3757)"/>
          <path d="m26.264 189.94c87.884 7.9963 168.26 26.008 233.35 64.397l1.0102 72.822-231.05-1.6506z" fill="#164716"/>
          <path d="m197.25 234.08v17.744" fill="#445016" stroke-linecap="round" stroke-width="5.9"/>
          <path transform="matrix(.64444 0 0 .58433 -32.204 234.91)" d="m174.96-104.7c0 18.232-14.78 33.012-33.012 33.012s-33.012-14.78-33.012-33.012c0-18.232 14.78-33.012 33.012-33.012s33.012 14.78 33.012 33.012z" fill="#478119"/>
          <path transform="matrix(.64444 0 0 .58433 -16.065 241.56)" d="m174.96-104.7c0 18.232-14.78 33.012-33.012 33.012s-33.012-14.78-33.012-33.012c0-18.232 14.78-33.012 33.012-33.012s33.012 14.78 33.012 33.012z" fill="#476d19"/>
          <g fill="#478119">
            <path transform="matrix(.64444 0 0 .58433 30.886 241.56)" d="m174.96-104.7c0 18.232-14.78 33.012-33.012 33.012s-33.012-14.78-33.012-33.012c0-18.232 14.78-33.012 33.012-33.012s33.012 14.78 33.012 33.012z"/>
            <path transform="matrix(.64444 0 0 .58433 55.828 253.54)" d="m174.96-104.7c0 18.232-14.78 33.012-33.012 33.012s-33.012-14.78-33.012-33.012c0-18.232 14.78-33.012 33.012-33.012s33.012 14.78 33.012 33.012z"/>
            <path transform="matrix(.64444 0 0 .58433 22.082 266.84)" d="m174.96-104.7c0 18.232-14.78 33.012-33.012 33.012s-33.012-14.78-33.012-33.012c0-18.232 14.78-33.012 33.012-33.012s33.012 14.78 33.012 33.012z"/>
          </g>
          <path d="m61.485 213.04v17.744" fill="#445016" stroke-linecap="round" stroke-width="5"/>
          <g>
            <path transform="matrix(.64444 0 0 .58433 -29.269 268.17)" d="m174.96-104.7c0 18.232-14.78 33.012-33.012 33.012s-33.012-14.78-33.012-33.012c0-18.232 14.78-33.012 33.012-33.012s33.012 14.78 33.012 33.012z" fill="#478119"/>
            <path transform="matrix(.64444 0 0 .58433 -4.327 254.87)" d="m174.96-104.7c0 18.232-14.78 33.012-33.012 33.012s-33.012-14.78-33.012-33.012c0-18.232 14.78-33.012 33.012-33.012s33.012 14.78 33.012 33.012z" fill="#3d7535"/>
            <path transform="matrix(.64444 0 0 .58433 1.5418 241.56)" d="m174.96-104.7c0 18.232-14.78 33.012-33.012 33.012s-33.012-14.78-33.012-33.012c0-18.232 14.78-33.012 33.012-33.012s33.012 14.78 33.012 33.012z" fill="#328a33"/>
            <path transform="matrix(.64444 0 0 .58433 26.484 258.86)" d="m174.96-104.7c0 18.232-14.78 33.012-33.012 33.012s-33.012-14.78-33.012-33.012c0-18.232 14.78-33.012 33.012-33.012s33.012 14.78 33.012 33.012z" fill="#668130"/>
            <path transform="matrix(.64444 0 0 .58433 48.492 268.17)" d="m174.96-104.7c0 18.232-14.78 33.012-33.012 33.012s-33.012-14.78-33.012-33.012c0-18.232 14.78-33.012 33.012-33.012s33.012 14.78 33.012 33.012z" fill="#506c2a"/>
            <path transform="matrix(.64444 0 0 .58433 71.967 264.18)" d="m174.96-104.7c0 18.232-14.78 33.012-33.012 33.012s-33.012-14.78-33.012-33.012c0-18.232 14.78-33.012 33.012-33.012s33.012 14.78 33.012 33.012z" fill="#1e8c31"/>
            <path transform="matrix(.64444 0 0 .58433 89.573 257.53)" d="m174.96-104.7c0 18.232-14.78 33.012-33.012 33.012s-33.012-14.78-33.012-33.012c0-18.232 14.78-33.012 33.012-33.012s33.012 14.78 33.012 33.012z" fill="#2f7336"/>
            <path transform="matrix(.64444 0 0 .58433 108.65 272.16)" d="m174.96-104.7c0 18.232-14.78 33.012-33.012 33.012s-33.012-14.78-33.012-33.012c0-18.232 14.78-33.012 33.012-33.012s33.012 14.78 33.012 33.012z" fill="#478119"/>
            <path transform="matrix(.64444 0 0 .58433 105.71 285.46)" d="m174.96-104.7c0 18.232-14.78 33.012-33.012 33.012s-33.012-14.78-33.012-33.012c0-18.232 14.78-33.012 33.012-33.012s33.012 14.78 33.012 33.012z" fill="#479019"/>
          </g>
          <path d="m216.64 225v17.744" fill="#445016" stroke-linecap="round" stroke-width="5.9"/>
          <path d="m171.25 231.19v17.744" fill="#445016" stroke-linecap="round" stroke-width="5.9"/>
          <path transform="matrix(.64444 0 0 .58433 79.303 284.13)" d="m174.96-104.7c0 18.232-14.78 33.012-33.012 33.012s-33.012-14.78-33.012-33.012c0-18.232 14.78-33.012 33.012-33.012s33.012 14.78 33.012 33.012z" fill="#329432"/>
          <path d="m111.41 231.61v17.744" fill="#445016" stroke-linecap="round" stroke-width="5.9"/>
          <path transform="matrix(.64444 0 0 .58433 20.615 281.47)" d="m174.96-104.7c0 18.232-14.78 33.012-33.012 33.012s-33.012-14.78-33.012-33.012c0-18.232 14.78-33.012 33.012-33.012s33.012 14.78 33.012 33.012z" fill="#478119"/>
          <path d="m88.307 221.7v17.744" fill="#445016" stroke-linecap="round" stroke-width="6.6"/>
          <path transform="matrix(.64444 0 0 .58433 -2.2179 273.9)" d="m174.96-104.7c0 18.232-14.78 33.012-33.012 33.012s-33.012-14.78-33.012-33.012c0-18.232 14.78-33.012 33.012-33.012s33.012 14.78 33.012 33.012z" fill="#477219"/>
          <path d="m47.042 206.02v17.744" fill="#445016" stroke-linecap="round" stroke-width="5.9"/>
          <path transform="matrix(.64444 0 0 .58433 -43.941 257.53)" d="m174.96-104.7c0 18.232-14.78 33.012-33.012 33.012s-33.012-14.78-33.012-33.012c0-18.232 14.78-33.012 33.012-33.012s33.012 14.78 33.012 33.012z" fill="#479719"/>
          <path d="m139.06 227.48v17.744" fill="#445016" stroke-linecap="round" stroke-width="5.9"/>
          <g>
            <path transform="matrix(.64444 0 0 .58433 48.492 278.81)" d="m174.96-104.7c0 18.232-14.78 33.012-33.012 33.012s-33.012-14.78-33.012-33.012c0-18.232 14.78-33.012 33.012-33.012s33.012 14.78 33.012 33.012z" fill="#566a2f"/>
            <path transform="matrix(.64444 0 0 .58433 124.79 270.83)" d="m174.96-104.7c0 18.232-14.78 33.012-33.012 33.012s-33.012-14.78-33.012-33.012c0-18.232 14.78-33.012 33.012-33.012s33.012 14.78 33.012 33.012z" fill="#479d19"/>
            <path transform="matrix(.64444 0 0 .58433 144.04 280.63)" d="m174.96-104.7c0 18.232-14.78 33.012-33.012 33.012s-33.012-14.78-33.012-33.012c0-18.232 14.78-33.012 33.012-33.012s33.012 14.78 33.012 33.012z" fill="#2f7336"/>
            <path transform="matrix(.64444 0 0 .58433 158.99 295.27)" d="m174.96-104.7c0 18.232-14.78 33.012-33.012 33.012s-33.012-14.78-33.012-33.012c0-18.232 14.78-33.012 33.012-33.012s33.012 14.78 33.012 33.012z" fill="#478119"/>
          </g>
          <path d="m497.14 183.34c-239.04 45.738-380.29 96.5-457.59 142.18l457.59 3.3012z" fill="#0a0"/>
          <g transform="translate(40.439 -4.9518)">
            <path d="m292.84 226.82 24.869-23.571" fill="none" stroke-linecap="round" stroke-width="2"/>
            <path d="m389.43 208.21 0.16108 25.584-45.83 16.325-0.35222-24.444z" fill="#540" stroke-linecap="round" stroke-linejoin="round"/>
            <path d="m293.33 247.28 7.3814 32.23 44.991 11.374 30.389-6.9894 37.583-34.377-24.391-15.722-46.036 11.185z" fill-opacity=".27451" filter="url(#filter3851)"/>
            <path d="m343.73 249.94-47.909-0.14589 0.0152-25.739 21.304-20.982 27.143 23.441z" fill="#540"/>
            <path d="m366.19 191.45s-13.522 3.7854-20.279 5.6898c-5.4266 1.5293-8.7861 6.2734-7.8782 6.2734-0.73149 3.9305 1.0733 6.2309 1.8966 7.4406 3.161 1.5562 5.8844 3.2583 9.0454 4.8145 4.1336-0.29179 7.1001-0.72946 11.234-1.0212 2.1398-1.1671 4.2795-2.3343 6.4193-3.5014 1.7507-1.7994 3.5014-3.5987 5.2522-5.398 0.0973-2.3829 0.19452-4.7658 0.29179-7.1488-1.9939-2.3829-3.9878-4.7658-5.9816-7.1488z" fill="#3b3e43" filter="url(#filter3813)"/>
            <path d="m317.74 203.27 53.456-16.483 24.125 24.255-47.982 17.052z" stroke-linecap="round" stroke-linejoin="round" stroke-width="2"/>
            <rect x="323.83" y="232.84" width="11.554" height="16.919" fill="#2b2200"/>
            <rect x="323.83" y="232.84" width="11.554" height="16.919" fill="#540" filter="url(#filter3841)"/>
          </g>
        </g>
        <rect x="955.5" y="1185.6" width="191.14" height="238.27" fill="none" stroke-linecap="round" stroke-linejoin="round" stroke-width="7.0735"/>
      </g>
    </g>
  </g>
</svg>
