<?xml version="1.0" encoding="UTF-8"?>
<svg width="22" height="22" version="1.0" xmlns="http://www.w3.org/2000/svg" xmlns:xlink="http://www.w3.org/1999/xlink">
  <defs>
    <radialGradient id="radialGradient8265" cx=".91667" cy="2.2878" r="8.25" gradientTransform="matrix(1.6364 0 0 .60606 30 13.239)" gradientUnits="userSpaceOnUse">
      <stop stop-color="#80b3ff" offset="0"/>
      <stop stop-color="#b4dcff" offset="1"/>
    </radialGradient>
    <linearGradient id="linearGradient8402" x1="19" x2="3" y1="20" y2="2" gradientTransform="translate(-1e-6,2)" gradientUnits="userSpaceOnUse">
      <stop stop-color="#f8ecc0" offset="0"/>
      <stop stop-color="#eccc53" offset="1"/>
    </linearGradient>
    <linearGradient id="linearGradient8404" x1="3" x2="19" y1="2" y2="20" gradientUnits="userSpaceOnUse">
      <stop stop-color="#f8ecbb" offset="0"/>
      <stop stop-color="#e9c649" offset="1"/>
    </linearGradient>
  </defs>
  <rect x="4" y="9" width="0" height="0" fill="#80b3ff" fill-opacity=".99608"/>
  <g transform="translate(-24.5 -4.6255)" fill-rule="evenodd">
    <rect y="1.5" width="16.5" height="13.126" fill="url(#radialGradient8265)"/>
    <path d="m-7.8375e-8 10.125c2.475 2.0719 14.025-2.1328 16.5-0.03047l-1e-6 4.9055h-16.5v-4.875z" fill="#165016"/>
  </g>
  <g>
    <path d="m-18-3.6255v4.5h-4.5v4h4.5v4.5h4v-4.5h4.5v-4h-4.5v-4.5h-4z" fill="#fff"/>
    <rect x="2" y="2" width="18" height="12" fill="url(#linearGradient8402)"/>
    <rect x="1" y="1" width="20" height="1" fill="#808080"/>
    <rect x="20" y="1" width="1" height="12" fill="#808080"/>
  </g>
  <g transform="matrix(.86603 -.5 .5 .86603 .5 7.0096)" fill-rule="evenodd">
    <rect y="1.5" width="16.5" height="13.126" fill="#80b3ff"/>
    <path d="m-7.8375e-8 10.125c2.475 2.0719 14.025-2.1328 16.5-0.03047l-1e-6 4.9055h-16.5v-4.875z" fill="#165016"/>
  </g>
  <path d="m2 6h12l6 6v9h-18v-15z" fill="url(#linearGradient8404)"/>
  <g fill="#808080">
    <path d="m1 5v16h20c0.008287-4.7168 0-4.4664 0-8.6875l-7.3125-7.3125h-12.688zm1 1h11.312l6.6875 6.6875v7.3125h-18v-14z"/>
    <path d="m12 5v9h9v-1h-8v-8h-1z" fill-rule="evenodd"/>
    <rect x="1" y="1" width="1" height="4"/>
  </g>
  <g transform="matrix(.55876 -.53459 .53459 .55876 -12.115 .73523)" fill="none" stroke="#7f7f7f" stroke-linejoin="round" stroke-width="1.9397">
    <path transform="translate(-3,14)" d="m14 14a4 4 0 1 1-8 0 4 4 0 1 1 8 0z" stroke-miterlimit="5"/>
    <path d="m5.5 31.5v5.5h3v-5.5"/>
  </g>
</svg>
