<?xml version="1.0" encoding="UTF-8"?>
<svg width="22" height="22" version="1.0" xmlns="http://www.w3.org/2000/svg">
  <g fill-rule="evenodd">
    <path transform="matrix(.5 0 0 .53333 -1.05e-7 1.9333)" d="m8 3.875 30 1.875-2 24.375-30-1.875 2-24.375z" fill="#80b3ff"/>
    <path d="m3.5 10.5c6 3.732 9-2 15 1l-0.5 6.5-15-1 0.5-6.5z" fill="#165016"/>
    <path d="m0 1h22v20h-22v-20zm4.5 4.5h13v11h-13v-11z" fill="#1a1a1a" opacity=".32212" stroke-width="0"/>
    <path d="m7 5.5v2.5h-2.5v6h2.5v2.5h8v-2.5h2.5v-6h-2.5v-2.5h-8zm0 2.5h8v6h-8v-6z" fill="#fff" opacity=".45192"/>
  </g>
  <rect transform="matrix(1.0764 0 0 1.1097 -.84146 -1.2084)" x="4.9622" y="6.0451" width="12.077" height="9.9122" fill="none" stroke="#fff" stroke-width=".45747"/>
  <g fill="#fff" fill-rule="evenodd">
    <path d="m0.5 19 1.5 1.5 2-2 1 1v-3.5h-3.5l1 1-2 2z"/>
    <path d="m20 20.5 1.5-1.5-2-2 1-1h-3.5v3.5l1-1 2 2z"/>
    <path d="m2 1.5-1.5 1.5 2 2-1 1h3.5v-3.5l-1 1-2-2z"/>
    <path d="m21.5 3-1.5-1.5-2 2-1-1v3.5h3.5l-1-1 2-2z"/>
  </g>
</svg>
