<?xml version="1.0" encoding="UTF-8"?>
<svg width="22" height="22" version="1.0" xmlns="http://www.w3.org/2000/svg" xmlns:xlink="http://www.w3.org/1999/xlink">
  <defs>
    <linearGradient id="linearGradient2398" x1="3" x2="19" y1="2" y2="20" gradientUnits="userSpaceOnUse">
      <stop stop-color="#f8ecbb" offset="0"/>
      <stop stop-color="#e9c649" offset="1"/>
    </linearGradient>
    <linearGradient id="linearGradient2406" x1="19" x2="3" y1="20" y2="2" gradientTransform="translate(0,2)" gradientUnits="userSpaceOnUse">
      <stop stop-color="#f8ecc0" offset="0"/>
      <stop stop-color="#eccc53" offset="1"/>
    </linearGradient>
  </defs>
  <g>
    <rect x="2" y="3" width="18" height="12" fill="url(#linearGradient2406)"/>
    <path d="m2 7h12l6 6v9h-18v-15z" fill="url(#linearGradient2398)"/>
    <g fill="#808080">
      <path d="m1 6v16h20c0.008287-4.7168 0-4.4664 0-8.6875l-7.3125-7.3125h-12.688zm1 1h11.312l6.6875 6.6875v7.3125h-18v-14z"/>
      <path d="m12 6v9h9v-1h-8v-8h-1z" fill-rule="evenodd"/>
      <rect x="1" y="2" width="20" height="1"/>
      <rect x="1" y="2" width="1" height="4"/>
      <rect x="20" y="2" width="1" height="12"/>
    </g>
  </g>
</svg>
