<?xml version="1.0" encoding="UTF-8"?>
<svg width="22" height="22" version="1.0" xmlns="http://www.w3.org/2000/svg">
  <g fill-rule="evenodd">
    <g transform="matrix(1.1 0 0 1.2153 0 -.21533)" opacity=".5">
      <rect y="1" width="20" height="16" fill="#80b3ff" opacity="1"/>
      <path d="m-9.5e-8 10.5c3 2.9565 17-3.0435 20-0.04348l-2e-6 7h-20v-6.9565z" fill="#165016"/>
    </g>
    <g transform="matrix(.8 0 0 .84375 3 3.1562)">
      <rect y="1" width="20" height="16" fill="#80b3ff"/>
      <path d="m-9.5e-8 10.5c3 2.9565 17-3.0435 20-0.04348l-2e-6 7h-20v-6.9565z" fill="#165016"/>
    </g>
    <g fill="#fff">
      <path d="m14.414 5h3.5858v3.5858l-1.0757-1.0757-2.1515 2.1515-1.4343-1.4343 2.1515-2.1515-1.0757-1.0757z"/>
      <path d="m7.5858 17h-3.5858v-3.5858l1.0757 1.0757 2.1515-2.1515 1.4343 1.4343-2.1515 2.1515 1.0757 1.0757z"/>
      <path d="m4 8.5858v-3.5858h3.5858l-1.0757 1.0757 2.1515 2.1515-1.4343 1.4343-2.1515-2.1515-1.0757 1.0757z"/>
      <path d="m18 13.414v3.5858l-3.5858 1e-6 1.0757-1.0757-2.1515-2.1515 1.4343-1.4343 2.1515 2.1515 1.0757-1.0757z"/>
    </g>
  </g>
</svg>
