<?xml version="1.0" encoding="UTF-8"?>
<svg width="22" height="22" version="1.0" xmlns="http://www.w3.org/2000/svg">
  <rect y="2" width="22" height="17.501" fill="#80b3ff" fill-opacity=".99608" fill-rule="evenodd"/>
  <path d="m-1.045e-7 13.5c3.3 2.7625 18.7-2.8437 22-0.040627l-2e-6 6.5406h-22v-6.5z" fill="#165016" fill-rule="evenodd"/>
  <path d="m4.7754 6.7906h2.5973v3.6804q-0.60989 0.19979-1.2303 0.29443-0.62041 0.09464-1.4091 0.09464-1.1672 0-1.9664-0.46268-0.79917-0.47319-1.2198-1.3355-0.4101-0.87278-0.4101-2.061 0-1.1672 0.45216-2.0295 0.46268-0.87278 1.3355-1.346 0.87278-0.48371 2.1031-0.48371 0.63092 0 1.1882 0.11567 0.56783 0.11567 1.0515 0.32598l-0.35752 0.8202q-0.39959-0.16825-0.90432-0.29443-0.49422-0.1367-1.0305-0.1367-1.346 0-2.1031 0.8202-0.74659 0.80969-0.74659 2.2082 0 0.89381 0.28392 1.5878 0.29443 0.6835 0.91484 1.0726 0.62041 0.37855 1.6299 0.37855 0.49422 0 0.84123-0.052577t0.63092-0.12618v-2.2293h-1.6509zm4.3954 3.9643v-7.508h0.94639v6.6668h3.2808v0.84123z" fill="#fff" stroke-width="1px" aria-label="GL"/>
</svg>
