<?xml version="1.0" encoding="UTF-8"?>
<svg width="512" height="512" version="1.1" xmlns="http://www.w3.org/2000/svg" xmlns:xlink="http://www.w3.org/1999/xlink">
  <defs>
    <filter id="filter5220" x="-.10681" y="-.11841" width="1.214" height="1.2329" color-interpolation-filters="sRGB">
      <feGaussianBlur stdDeviation="1.4843048"/>
    </filter>
    <filter id="filter5174" x="-.04559" y="-.14627" width="1.0942" height="1.2969" color-interpolation-filters="sRGB">
      <feGaussianBlur stdDeviation="1.4850009"/>
    </filter>
    <filter id="filter5118" x="-.37358" y="-.098143" width="1.7513" height="1.1904" color-interpolation-filters="sRGB">
      <feGaussianBlur stdDeviation="2.3332357"/>
    </filter>
    <filter id="filter5098" x="-.38965" y="-.051549" width="1.7812" height="1.1015" color-interpolation-filters="sRGB">
      <feGaussianBlur stdDeviation="2.316633"/>
    </filter>
    <linearGradient id="linearGradient3587" x1="134.16" x2="271.56" y1="96.203" y2="96.203" gradientTransform="matrix(.95 -.22624 0 .5 1491.5 -227.7)" gradientUnits="userSpaceOnUse">
      <stop stop-color="#03a025" offset="0"/>
      <stop stop-color="#03a025" stop-opacity=".4065" offset="1"/>
    </linearGradient>
    <linearGradient id="linearGradient3589" x1="134.16" x2="271.56" y1="41.324" y2="41.324" gradientTransform="matrix(.95 -.22624 0 .5 1491.5 -227.7)" gradientUnits="userSpaceOnUse">
      <stop stop-color="#4cfff6" offset="0"/>
      <stop stop-color="#4cfff6" stop-opacity=".34959" offset="1"/>
    </linearGradient>
  </defs>
  <g transform="translate(0,448)">
    <g transform="matrix(4.8498 0 0 4.8498 127.26 -419.5)">
      <g transform="matrix(.54958 0 0 .63404 -886.55 201.41)">
        <g stroke="#fff" stroke-dashoffset="20" stroke-linecap="square" stroke-linejoin="round" stroke-width="1.3784">
          <path d="m1606.1-312.26c-21.532-2.496-40.002-5.6504-40.002 11.523v80.924c0 16.613 19.679 15.055 42.034 12.88l130.28-12.675c10.401-1.012 18.295-1.9453 18.295-12.176v-49.574c1e-4 -9.9174-7.894-11.471-18.295-12.887 0 0-130.28-17.739-130.28-17.739-0.6665-0.0907-1.3703-0.19999-2.0325-0.27674" fill="#fff"/>
          <path d="m1714.8-272.42c-48.843-3.0892-105.31 1.1769-148.72 12.363v40.25c0 16.613 19.679 15.055 42.034 12.88l130.29-12.676c10.4-1.0119 18.294-1.9452 18.294-12.175v-35.685c-11.809-2.2008-25.823-3.9397-41.898-4.9564" fill="url(#linearGradient3587)"/>
          <path d="m1606.2-312.25c-21.528-2.4955-40.043-5.656-40.043 11.517v40.648c43.408-11.184 99.874-15.447 148.72-12.355 16.075 1.0176 30.089 2.7572 41.898 4.9586v-13.871c0-9.9171-7.8935-11.47-18.294-12.886l-130.29-17.74c-0.6665-0.0907-1.329-0.19435-1.9908-0.27107" fill="url(#linearGradient3589)"/>
        </g>
        <path d="m1608-309.04c-20.237-2.211-37.56-4.6121-37.56 11.114v65.047c18.928-22.676 67.984-55.193 164.22-59.749l-124.78-16.169c-0.6284-0.0814-1.253-0.17503-1.8768-0.24321" fill="#fff" opacity=".58197"/>
      </g>
      <path transform="matrix(-1 0 0 1 591.45 -60.39)" d="m569.85 70.829a8.5908 8.1697 0 0 1-8.5908 8.1697 8.5908 8.1697 0 0 1-8.5908-8.1697 8.5908 8.1697 0 0 1 8.5908-8.1697 8.5908 8.1697 0 0 1 8.5908 8.1697z" fill="#fffa49"/>
      <path d="m77.988 23.504c-3.9935 0.71684-18.205 0.55675-25.504 0.01953-7.2947-0.53689-12.225-1.6336-12.568-1.7312-1.2289-0.35013-6.1662-1.2029-4.5319-2.1968 2.0759-1.2624 3.8094-4.0477 3.8121-6.1249 0-0.87255 0.2814-2.3591 0.6229-3.3035 0.8639-2.3892 0.2473-4.2587-2.3252-7.0495-4.2475-4.608-11.2-4.7146-15.763-0.24175-4.2916 4.2068-4.5088 10.565-0.5041 14.754 2.2961 2.4018 2.014 2.4843-4.3136 1.2604-2.1917-0.42389-8.8105-2.0461-12.221-2.7823-9.7751-2.1099-16.771-4.282-25.946-10.712-5.915 7.3056 31.417 17.345 47.182 19.624 21.752 2.7944 30.046 2.5577 39.501 2.5119 9.455-0.04579 13.635-1.3011 12.559-4.028zm-60.149 8.9362c-1.2736 4.9335-2.1801 8.3976-4.7298 16.624-2.5983 8.384-10.522 22.831-12.876 25.804-0.911 1.1502-1.6563 2.4919-1.6563 2.9817 0 0.48977 2.7072 3.8142 6.016 7.3878 4.5887 4.9558 6.1811 6.3603 6.7118 5.9199 0.5608-0.46545 0.497-1.1002-0.3289-3.2738-1.3195-3.4726-1.3278-8.6744-0.02-12.486 3.2831-9.5671 7.2938-19.312 8.4059-20.424 0.7702-0.77018 0.7948-0.65186 0.2666 1.2827-0.3201 1.1721-0.7794 2.3749-1.0208 2.6728-1.0329 1.2747-4.2764 17.926-4.6956 24.106l-0.3125 4.6072 5.3656 3.6527c2.9511 2.009 5.5165 3.6527 5.7009 3.6527 0.1843 0 0.4641-0.3359 0.6216-0.74645 0.1576-0.41056 0.088-0.95896-0.1534-1.2187-0.8866-0.95172-1.7396-13.401-1.3843-20.205 0.4064-7.7841 1.5207-16.276 2.7054-20.62 1.0911-4.0003 2.8961-10.491 3.8407-13.812 0.4238-1.4895 1.0364-3.8659 1.3613-5.281 0.5567-1.834 0.5288-2.372 1.0427-4.1 0-0.55943-0.4696-0.94061-1.2186-0.98911-0.6703-0.04342-3.8326-0.26259-7.0273-0.48705-0.9164-0.27736-3.05-0.78189-4.2129-1.3942m4.6882-9.9819c-1.7847-1.7333-1.9772-2.1982-1.9616-4.7393 0.019-3.0251 0.6889-4.3025 3.0887-5.8849 3.2852-2.1662 8.8074-0.52709 11.248 3.3386 1.5853 2.5113 1.6164 2.7955 0.5355 4.8857-1.3838 2.6761-4.3884 4.3218-7.8905 4.3218-2.7504 0-3.2301-0.18365-5.0198-1.9218z"/>
      <g fill="none" stroke="#fff">
        <path transform="matrix(-.51388 0 0 .51388 428.48 -25.22)" d="m775.74 107.82 13.132 52.023s4.2931 21.213 3.5355 31.315l-1.8698 29.268" filter="url(#filter5098)" stroke-width="2"/>
        <path transform="matrix(-.51388 0 0 .51388 428.48 -25.22)" d="m800.49 151.5 10.859 27.022c5.476 11.365 6.2704 17.682 6.4506 21.466 0.25254 5.3033 0.13712 12.369 0.13712 12.369" filter="url(#filter5118)" stroke-width="2"/>
        <path transform="matrix(-.51388 0 0 .51388 428.48 -25.22)" d="m794.01 88.998s27.768-5.1863 44.652-9.7493c13.94-3.9455 31.628-13.747 35.537-17.183" filter="url(#filter5174)" stroke-width="1px"/>
        <path transform="matrix(-.51388 0 0 .51388 428.48 -25.22)" d="m757.94 65.248c1.1607-4.9107 8.125-13.75 18.125-14.286 9.8074-0.5314 19.35 8.6902 19.643 16.071 0.98214 7.6786-3.3929 14.375-7.5 18.214" filter="url(#filter5220)" stroke-width="1px"/>
      </g>
    </g>
  </g>
</svg>
