<?xml version="1.0" encoding="UTF-8"?>
<svg width="22" height="22" version="1.0" xmlns="http://www.w3.org/2000/svg" xmlns:xlink="http://www.w3.org/1999/xlink">
  <defs>
    <linearGradient id="linearGradient2396" x1=".88388" x2="38.811" y1=".2539" y2="40.43" gradientUnits="userSpaceOnUse">
      <stop stop-color="#fff" offset="0"/>
      <stop stop-color="#181818" offset="1"/>
    </linearGradient>
    <filter id="filter5126" x="-.015422" y="-.05408" width="1.0308" height="1.1082" color-interpolation-filters="sRGB">
      <feGaussianBlur stdDeviation="2.8426918"/>
    </filter>
    <filter id="filter5130" x="-.015201" y="-.056983" width="1.0304" height="1.114" color-interpolation-filters="sRGB">
      <feGaussianBlur stdDeviation="2.6835434"/>
    </filter>
    <filter id="filter5072" x="-1.0505" y="-1.1088" width="3.101" height="3.2177" color-interpolation-filters="sRGB">
      <feGaussianBlur stdDeviation="8.4681497"/>
    </filter>
    <filter id="filter5098" x="-.38965" y="-.052003" width="1.7812" height="1.1026" color-interpolation-filters="sRGB">
      <feGaussianBlur stdDeviation="2.316633"/>
    </filter>
    <filter id="filter5118" x="-.40304" y="-.10373" width="1.8105" height="1.2065" color-interpolation-filters="sRGB">
      <feGaussianBlur stdDeviation="2.3332357"/>
    </filter>
    <filter id="filter5170" x="-.019085" y="-.8709" width="1.0378" height="2.7435" color-interpolation-filters="sRGB">
      <feGaussianBlur stdDeviation="1.3275287"/>
    </filter>
    <filter id="filter5174" x="-.025666" y="-.073404" width="1.0529" height="1.1487" color-interpolation-filters="sRGB">
      <feGaussianBlur stdDeviation="1.4850009"/>
    </filter>
    <filter id="filter5220" x="-.10681" y="-.11841" width="1.214" height="1.2329" color-interpolation-filters="sRGB">
      <feGaussianBlur stdDeviation="1.4843048"/>
    </filter>
    <linearGradient id="linearGradient3054" x1="142.6" x2="585.11" y1="499.77" y2="499.77" gradientTransform="translate(184.33 -158.95)" gradientUnits="userSpaceOnUse">
      <stop stop-color="#04b315" offset="0"/>
      <stop stop-color="#03b614" stop-opacity="0" offset=".5"/>
      <stop stop-color="#01ba13" offset="1"/>
    </linearGradient>
    <linearGradient id="linearGradient3056" x1="162.14" x2="585.82" y1="444.11" y2="444.11" gradientTransform="translate(184.33 -158.95)" gradientUnits="userSpaceOnUse">
      <stop stop-color="#00e4ff" offset="0"/>
      <stop stop-color="#00e3ff" stop-opacity="0" offset=".52632"/>
      <stop stop-color="#00e4ff" offset="1"/>
    </linearGradient>
    <radialGradient id="radialGradient3058" cx="377.8" cy="476.58" r="39.193" gradientTransform="matrix(1 0 0 .97423 0 12.283)" gradientUnits="userSpaceOnUse">
      <stop stop-color="#fffa2a" offset="0"/>
      <stop stop-color="#fffa2a" stop-opacity="0" offset="1"/>
    </radialGradient>
  </defs>
  <g>
    <rect width="22" height="22" fill="url(#linearGradient2396)" opacity=".5"/>
    <path d="m0 0v22h22v-22h-22zm1 1h20v20h-20v-20z" fill="#7f7f7f" fill-rule="evenodd"/>
    <g transform="translate(-.67944 -20.265)">
      <g>
        <path transform="matrix(.047671 0 0 .047671 -14.462 14.647)" d="m326.99 375.99c4.6939-1.8607 8.6367-5.1864 12.32-8.5614 3.6339-3.8131 7.3418-7.5468 11.073-11.264 3.1343-3.5418 5.4067-7.1161 9.3971-9.7585 2.6769-2.0184 5.9281-2.745 9.1356-3.4324 2.4897-0.63388 4.952-1.3115 7.4651-1.8512 9.4758-1.4732 2.9435-0.75857 21.128 15.598 0.45079 0.40546-0.28747 1.1784-0.40738 1.7727-0.41218 2.0431-0.82005 4.0857-1.2417 6.1281-1.0038 4.2035-2.1131 8.3751-2.7822 12.648-0.58083 3.2827-1.202 6.5439-1.8975 9.8037-0.66009 2.4854-2.0314 4.6769-3.196 6.9412-0.70126 2.1932-2.312 3.7942-3.6886 5.558-0.15145 0.24494-0.95174 1.4587-0.96845 1.7966-8e-3 0.17197 0.23644 0.25036 0.35466 0.37554-6.2487-5.1221-12.572-10.154-18.746-15.366-0.24774-0.20915 0.59861 0.36017 0.91984 0.31623 0.68845-0.0942 1.3066-0.47341 1.9599-0.71012 5.3207-3.0798 9.6155-7.5776 13.427-12.338 2.7394-2.8716 4.0864-6.6368 6.1013-9.9756 2.0926-3.1775 4.8888-5.6637 7.9667-7.8448 2.5008-1.7474 5.1997-3.1507 7.9748-4.3994 2.7396-1.1399 5.4992-2.2778 8.1272-3.6593 2.5129-1.3852 4.9378-2.9221 7.5888-4.0335 8.5488-3.7054 2.3009-1.2972 21.059 14.893 0.44759 0.38633-0.36954 1.1234-0.53915 1.6899-0.69073 2.3067-1.4982 4.4261-2.4813 6.6312-2.49 5.3051-5.0689 10.577-7.8145 15.753-1.6748 3.3895-3.4106 6.807-5.5778 9.9168-2.49 3.573-0.96224 0.89045-2.6761 4.1676-0.62591 9.2609 0.21862 1.4283-18.599-14.597-0.1771-0.15083 0.30773 0.50922 0.53285 0.45063 0.69106-0.17985 1.2711-0.6605 1.8547-1.072 1.5184-1.0707 4.4316-3.6689 5.6909-4.76 6.1793-5.4012 12.876-10.15 19.563-14.89 0.7192-0.49237 1.4436-0.97727 2.1576-1.4771 1.1734-0.82136 2.2753-1.7476 3.4899-2.5066 2.1846-1.365 4.5968-2.4104 6.8713-3.6152 3.8091-1.9799 7.5926-4.0087 11.394-6.004 10.178-6.1784 1.0906-8.737 22.339 14.364 0.58295 0.63376-0.89756 1.4698-1.3399 2.2086-0.55194 0.92188-1.0953 1.8489-1.6429 2.7733-4.0552 6.3655-7.6109 13.014-11.394 19.539-0.96978 2.3118-3.3824 4.9066-3.5935 7.5214-0.0363 0.44897 0.0534 0.99367 0.389 1.2941 0.30503 0.27304 1.5365 0.40475 1.2195 0.14569-6.0467-4.9417-12.367-9.5393-18.55-14.309 0.44317 0.0531 0.88564 0.20621 1.3295 0.15925 2.246-0.2376 4.6589-1.2398 6.6925-2.0243 6.0744-2.3431 11.911-5.0484 17.734-7.9517 7.1398-4.0094 14.259-8.0516 21.403-12.052 3.9194-2.331 8.0143-4.3107 11.931-6.6515 2.0152-1.1235 3.9682-2.3485 5.9042-3.6013 0.7979-0.5163 1.946-0.9928 2.3002-1.9825 6.5293 5.2911 13.454 10.129 19.588 15.873 0.45407 0.42526-0.59837 1.091-0.88428 1.6436-1.3279 2.5661-2.822 5.1285-3.9503 7.7892-0.30249 0.71326-0.50356 1.4654-0.75534 2.1981 0.78773 9.1856 0.43612 1.6691-18.21-14.219-0.1698-0.14469 0.3673 0.41514 0.57702 0.33906 0.6673-0.24206 1.1909-0.77393 1.7666-1.1892 2.3621-1.7039 2.6037-1.994 4.8877-3.9417 2.3554-2.2143 4.796-4.3311 7.14-6.5576 1.4615-1.3882 2.6643-2.6811 4.3676-3.7406 18.176 16.694 20.679 9.1515 18.473 20.434-0.24267 1.2409-0.60227 2.4602-0.78243 3.7117-0.48989 3.4032-0.2228 5.3898 0.97264 8.5065 8.2442 5.5791-7.9534-5.3352-16.49-13.188-0.68336-0.62862 1.8473 0.31054 2.774 0.25276 4.6942-0.29267 9.0763-2.2747 13.339-4.0554 7.649-3.453 14.575-8.247 21.552-12.861 4.1507-2.8454 7.8816-6.2361 11.774-9.4139 1.2682-0.78205 2.2496-1.932 3.4229-2.8294 0.30714-0.23493 0.6455-0.87516 0.96038-0.65071 20.713 14.765 22.156 7.4878 19.68 17-0.7261 3.2261-0.96155 6.5234-1.0979 9.8182 0.0795 3.1076-0.48171 6.1647-0.77785 9.2467-0.0633 0.84237-0.46629 1.4645 0.5102 1.8111 0.27916 0.0991 1.1214 0.20757 0.88832 0.0248-6.2827-4.9261-12.884-9.436-19.17-14.359-0.23136-0.1812 0.59773 0.1137 0.88092 0.0352 0.61762-0.17125 1.1751-0.51213 1.7627-0.76819 8.5273-4.9901 17.303-9.521 26.02-14.162 6.2477-3.2511 12.03-7.2836 17.36-11.871 1.6426-1.5796 3.4932-2.9616 4.9911-4.6912 6.9268-7.9986-5.1938-6.7932 21.675 13.199-2.328 4.6194-3.9794 9.5694-5.8494 14.398-2.7034 6.426-5.9088 12.615-8.7434 18.981-2.1423 4.9655-4.7758 9.7067-7.4059 14.427-6.1378 10.581-0.80647 8.8541-21.761-10.971-0.5219-0.49377 1.2272-0.75413 1.7899-1.2009 1.0037-0.79686 1.9339-1.6821 2.9008-2.5232 1.2181-1.1674 2.4701-2.3005 3.6544-3.5021 2.61-2.6481 5.0636-5.4461 7.6179-8.148 3.6675-3.8793 7.3314-7.7412 10.902-11.711 5.2144-5.6598 10.89-10.919 15.871-16.789 3.2937-3.7183 5.4724-8.2174 8.039-12.432 2.757-4.1164 5.5292-8.2203 7.3784-12.84 1.1305-2.2738 3.0463-4.0324 5.1386-5.4305 0.40851-0.27296 0.88192-0.97861 1.2924-0.70865 7.1081 4.6746 13.721 10.062 20.581 15.093-2.082 8.1017-5.4335 15.777-8.5509 23.516-2.3434 6.9039-5.6195 13.429-8.4348 20.138-2.4224 6.1424-1.1794 3.1255-3.7227 9.0532-2.537 6.6831-6.0385 12.926-9.1739 19.334 0.0194 9.0553 0.41128 8.4173-18.03-13.933-0.86052-1.0429 2.2686-1.4943 3.2603-2.4132 5.0806-4.7078 9.101-10.51 13.099-16.11 4.5143-6.8764 9.2838-13.599 12.96-20.981 1.1449-2.2988 2.1526-4.6636 3.2452-6.9877 1.4482-3.5417 2.9511-7.1262 5.328-10.169 0.97989-1.2545 3.1293-3.4166 4.224-4.549 3.9563-4.7271 8.7493-8.5945 13.29-12.722 7.875-8.0073 1.92-6.9401 23.125 11.683 0.75952 0.66704-0.99849 1.7594-1.442 2.6678-1.5926 3.2615-2.1682 5.0344-3.5382 8.5974-4.0697 11.436-7.7034 23.03-10.796 34.769-1.0651 3.5588-1.7904 7.2326-2.8807 10.783-0.0265 0.0863-1.9956 5.5528-2.0602 5.7959-0.16253 0.61144-0.17196 1.2536-0.25794 1.8804 0.4139-0.0838 1.5644 0.0208 1.2417-0.25151-6.1747-5.2107-13.454-9.1296-19.149-14.86-0.73119-0.7357 1.439-1.4994 2.0762-2.3179 3.4045-4.373 6.1257-9.2672 8.9341-14.025 5.1973-9.6661 10.131-19.459 15.33-29.125 3.3236-6.4826 7.7944-12.241 12.389-17.856 2.7328-2.9757 4.3362-6.8084 6.9664-9.8553 0.61296-0.71006 1.312-1.341 1.968-2.0115 3.1302-2.4835 6.534-4.5855 9.8885-6.7446 1.8144-1.1678 3.5743-2.3907 5.5074-3.3495 22.021 15.614 22.826 6.4655 20.262 16.559-0.63731 2.5094-1.4939 4.9197-2.2873 7.3824-0.18 0.67067-0.31437 1.3553-0.54 2.012-0.37068 1.079-1.587 3.701-1.974 4.715-1.146 3.0027-2.2341 6.0404-3.3412 9.0597-1.7859 4.396-3.158 8.9362-4.8332 13.373-1.5702 4.8782-3.718 9.5417-5.4739 14.355-2.7254 7.0544-4.7919 14.322-6.6846 21.634-1.3624 5.5255-2.9727 10.527-5.7435 15.515-1.1222 1.9488-2.1499 3.9514-3.1777 5.9511-0.21123 0.41099-0.62365 0.78375-0.60849 1.2456 8e-3 0.23093 0.82081-0.11984 0.64069-0.26455-6.5054-5.2268-13.261-10.135-19.891-15.202 3.0093-3.9137 5.7866-7.9961 8.7178-11.967 1.5842-1.8858 2.7143-4.1802 4.3797-6.0004 0.46588-0.50918 1.5052-1.3631 2.066-1.8369 2.1708-1.5138 3.868-3.4253 5.1959-5.7014 1.6963-3.1455 3.4427-6.2854 5.0392-9.4834l19.86 14.596c-1.9833 2.9803-3.5167 6.1795-5.1324 9.3708-1.403 2.5793-3.196 4.8653-5.6095 6.5873-0.6168 0.45852-1.2871 0.85193-1.8534 1.3714-1.7887 1.6407-3.0624 3.8364-4.6083 5.6821-2.9925 3.8167-6.0896 7.6352-8.1541 12.059-32.208-20.152-25.446-6.4415-19.684-14.873 1.255-1.8364 2.1425-3.8907 3.386-5.7348 2.5173-4.7257 4.0853-9.7852 5.7433-14.86 2.2309-7.2621 4.3067-14.572 6.636-21.805 1.5191-4.9615 3.6098-9.7091 5.1495-14.666 1.572-4.4422 3.2319-8.8468 5.2351-13.116 2.0247-5.2394 3.6951-10.61 5.3551-15.971 0.5493-1.8131 1.2436-3.6683 1.4337-5.5676 0.045-0.44948 0.14906-0.92726 4e-3 -1.3552-0.0733-0.21661-0.77215-0.48982-0.58437-0.35934 6.5433 4.5467 13.101 9.0724 19.652 13.609-0.36395-0.0659-0.72828-0.26581-1.0918-0.19777-0.96087 0.17982-4.1822 1.8293-4.7372 2.1226-3.326 1.7571-6.4317 3.8217-9.0775 6.5249-3.22 3.7201-5.678 8.0211-9.088 11.595-4.5946 5.4217-8.9323 11.076-12.545 17.211-5.5774 9.4092-10.983 18.911-15.987 28.642-2.6872 4.9856-5.3349 9.9957-8.0408 14.971-0.59599 1.0957-0.68149 3.7179-1.8409 3.2578-23.28-9.2365-24.153-4.8086-21.345-13.98 2.4424-5.792 4.2557-11.806 6.3248-17.736 3.8539-11.491 7.8871-22.939 11.039-34.648 0.27056-1.0535 2.0722-7.7433 2.2329-9.4089 0.0428-0.4436-0.71197-1.5294-0.33297-1.2949 6.9464 4.2977 13.558 9.1142 20.337 13.671-0.35217 0.14976-0.74502 0.22697-1.0565 0.44929-0.65224 0.46549-1.2014 1.0606-1.8022 1.5909-4.7051 3.8424-9.3094 7.7908-13.26 12.434-0.9349 1.012-2.9946 3.1888-3.865 4.3274-2.2787 2.9811-3.6687 6.4734-5.4492 9.7441-5.3896 9.4136-11.476 18.372-17.778 27.198-4.06 5.7441-8.1489 11.468-12.244 17.187-0.93907 1.3114-1.3675 4.5509-2.8484 3.9117-23.535-10.16-24.41-6.8879-20.147-15.864 3.3257-6.2111 6.8406-12.334 9.7437-18.759 4.3545-9.5142 8.6026-19.097 12.444-28.829 1.7107-4.849 3.5389-9.6747 4.866-14.648 0.44071-1.6517 1.2414-4.7913 1.1766-6.6436-0.0192-0.54986-0.31677-1.0538-0.47515-1.5807 6.5421 4.5084 13.183 8.8768 19.626 13.525 0.26628 0.1921-0.66865-0.17245-0.98214-0.0749-2.0764 0.64628-3.1754 2.8014-4.3588 4.4178-2.4691 4.337-5.1156 8.5508-7.7905 12.761-2.4567 4.4708-4.9322 8.9951-8.4823 12.714-5.3077 5.6544-11.186 10.739-16.64 16.25-7.408 7.7687-15.017 15.366-21.741 23.752-0.79165 0.98485-1.6143 1.9456-2.375 2.9546-0.50399 0.66849-0.69784 2.5039-1.4163 2.0741-25.966-15.531-23.541-8.5194-17.283-19.069 2.7424-4.5498 5.3497-9.1956 7.6464-13.987 3.0326-6.2335 6.1555-12.427 8.5342-18.951 1.7981-4.509 3.8979-9.3942 4.3808-14.242 6.7416 4.7053 13.589 9.263 20.225 14.116 0.17396 0.12722-0.43463 0.0986-0.60312 0.23299-0.41826 0.3336-0.73574 0.7777-1.1247 1.1451-1.7184 1.6232-3.624 3.0248-5.4525 4.5172-5.635 4.6703-11.695 8.7594-18.413 11.735-8.7601 4.1107-17.476 8.4966-24.87 14.846-0.59934 0.46921-1.1734 0.97257-1.798 1.4076-0.46177 0.32166-0.97375 1.1509-1.4541 0.85776-13.45-8.2079-22.275-7.3224-20.9-18.111 0.38786-3.0072 0.75621-6.0112 0.84131-9.0457 0.24978-3.3095 0.55484-6.618 0.75397-9.9289-4.0953-7.8466 0.20357 0.60954 19.247 13.847 0.2234 0.1553 0.28141-0.64372 0.0687-0.81333-0.26283-0.20954-1.4189 0.67144-2.0748 1.1183-0.52559 0.35806-1.048 0.72073-1.572 1.0811-1.7339 1.362-3.3864 2.8658-5.1418 4.1933-2.3603 1.7848-4.9665 3.2642-7.4291 4.8948-7.2333 4.5511-14.169 9.6455-22.171 12.845-13.452 6.0318-29.371 14.409-37.815-10.559-0.4487-3.2279-0.22682-5.6986 0.12819-8.9537 0.13611-1.248 0.33835-2.4906 0.40655-3.7441 0.56435-10.373-6.094-7.4574 18.91 10.607 0.0807-0.51086 0.64568-1.209 0.24223-1.5326-0.38902-0.31203-0.94103 0.35905-1.3506 0.64352-0.70129 0.48701-1.3024 1.1045-1.9565 1.6532-2.478 2.0785-5.0407 4.0692-7.2752 6.4197-2.1121 2.0191-4.2133 4.0612-6.3494 6.0538-0.67698 0.6315-1.306 2.3556-2.0773 1.8436-20.992-13.937-22.685-8.5227-18.966-17.608 1.2277-2.4959 2.5797-4.9534 3.6256-7.5339 0.33476-0.82593 0.62423-1.6703 0.89356-2.5198 0.20588-0.64939-0.0556-2.32 0.53101-1.9736 7.1126 4.2003 13.513 9.5046 20.269 14.257-0.7999 0.12712-0.17499-0.0189-1.4394 0.71307-2.5767 1.4916-5.1371 3.0118-7.7437 4.4525-3.9785 2.311-7.7797 4.9236-12.045 6.7127-7.5682 3.718-15.375 6.967-22.828 10.932-3.4369 1.7202-8.5233 4.2442-11.932 6.0363-2.9048 1.527-5.7024 3.254-8.6225 4.7517-0.675 0.34619-3.6015 1.571-4.4927 1.9478-2.1598-1.5451-24.17-8.4415-20.614-18.327 0.96999-2.6964 3.0034-4.9215 4.2661-7.4611 3.8895-6.4185 7.641-12.913 11.187-19.53 0.43296-0.95726 0.91685-1.8931 1.2989-2.8718 0.28164-0.72152 0.0259-2.6206 0.68837-2.2193 6.9458 4.2067 12.897 9.8812 19.58 14.495 0.25427 0.17554 0.37996-0.86266 0.0771-0.92373-1.1154-0.22492-1.8781 2.0593-2.9739 1.6756-3.8225 2.0242-7.6436 4.0503-11.584 5.8396-2.1731 1.1537-4.4125 2.2524-6.5131 3.5364-4.8866 2.9872 1.5495-0.70522-3.7474 2.4603-0.75142 0.44908-1.5293 0.85236-2.2939 1.2785-6.9173 4.2377-13.815 8.5882-19.669 14.268-2.3116 2.4209-4.5317 4.9662-7.0184 7.2124-0.61326 0.55394-1.1981 2.0874-1.8783 1.6181-20.821-14.363-23.093-8.9106-18.533-17.615 3.0299-4.4523 6.2386-8.7995 8.4263-13.763 2.6042-5.1752 5.3789-10.271 7.5765-15.638 0.6607-1.876 1.0469-2.6977 1.3778-4.6092 0.0998-0.57623 0.20639-1.1636 0.16339-1.7468-0.0244-0.33108-0.6342-1.1164-0.36065-0.92834 22.984 15.803 27.102 17.653 19.205 14.018-2.6764 0.78942-5.0643 2.2279-7.4461 3.6547-2.6347 1.491-5.4048 2.7111-8.2416 3.7652-2.6306 1.2784-5.3232 2.4559-7.7801 4.0564-2.8863 1.861-5.4933 4.0241-7.3385 6.9678-2.0211 3.4883-3.7805 7.1986-6.5793 10.156-4.331 4.6816-9.1247 8.898-13.937 13.075-0.67206 0.46962-1.3289 0.96179-2.0162 1.4088-0.54751 0.35614-1.1466 1.368-1.6856 0.99911-14.503-9.9256-24.491-9.5701-18.268-19.13 1.2486-1.6784 2.7124-3.2103 3.4793-5.1895 1.0956-2.0771 2.2684-4.1716 2.8333-6.4654 0.85365-3.1326 1.5556-6.2838 2.077-9.4919 0.83054-4.2361 2.0397-8.3844 2.8974-12.616 0.22166-1.2375 0.55242-2.9126 0.66355-4.1796 0.0524-0.59766 0.11844-1.2019 0.0589-1.7989-0.0378-0.37915-0.6601-1.3063-0.34699-1.0892 17.319 12.011 24.847 20.202 18.733 13.613-2.5676 0.31184-4.9944 1.0157-7.4853 1.6695-2.9828 0.6662-6.1306 0.82735-8.6867 2.7155-0.97401 0.56362-1.8367 1.0103-2.7126 1.729-2.5494 2.0916-4.5085 4.8447-6.7791 7.2085-3.6468 3.8588-7.1729 7.8391-11.129 11.393-3.7944 3.4732-7.7791 6.7438-11.999 9.6907l-19.165-15.879z" fill="url(#linearGradient3054)" filter="url(#filter5126)" opacity=".86463"/>
        <path transform="matrix(.047671 0 0 .047671 -14.462 14.647)" d="m346.47 259.71c3.7823-1.7045 7.2269-4.1284 10.616-6.5064 3.9677-2.4205 7.9412-4.929 12.406-6.3102 0.53831-0.0587 1.0737-0.19389 1.6149-0.17596 0.48599 0.0161 1.0414-0.0124 1.4322 0.27687 5.3273 3.9426 10.626 7.9472 15.599 12.328 0.8073 0.7111 0.23225 5.1733 0.15019 6.1378-0.79473 3.4332-2.4495 6.5593-3.8143 9.7799-1.9769 4.6647 0.0436 0.3323-2.0735 4.7324-1.6145 3.7227-3.9808 6.9613-6.5236 10.087-0.80939 1.0361-4.4787 4.9709-4.1449 6.3083 0.0405 0.16225 0.26275 0.20694 0.39412 0.3104-4.659-3.809-9.351-7.5781-13.977-11.427-0.2052-0.17072 0.43614 0.38046 0.70305 0.38338 1.0781 0.0118 3.6309-0.99677 4.3395-1.3288 2.4889-1.1661 4.3112-2.4731 6.6321-3.9771 6.5254-4.0477 11.949-9.3935 17.308-14.812 0.68918-0.6863 1.4275-1.3266 2.0675-2.0589 4.7509-5.4363-2.4223-13.56 14.194 11.61 0.75082 1.1374-1.6916 2.1402-2.4584 3.2669-2.5171 3.6982-3.9624 6.4205-6.2007 10.341-4.5081 8.8694-9.6233 17.398-14.835 25.866-0.58352 0.96002-1.183 1.9105-1.7505 2.8801-0.16578 0.28321-2.1968 3.6407-2.1139 4.4285 0.0427 0.40625 1.3173 0.96474 1.0039 0.70279-13.494-11.278-18.805-11.223-10.963-10.683 1.02-0.36456 2.0855-0.62093 3.0602-1.0937 2.6908-1.3052 6.79-4.1758 9.0077-5.8356 5.9497-4.453 11.39-9.4158 16.75-14.546 8.2256-7.9534 14.641-17.448 22.095-26.074 0.828-0.97348 1.6996-1.9115 2.484-2.9204 5.6647-7.2872-2.0144-9.7436 17.046 8.4332 0.49749 0.47443-0.69086 1.1894-1.0649 1.7662-0.65375 1.0083-1.345 1.9918-2.0174 2.9877-5.4775 8.9908-10.962 17.979-16.246 27.086-3.7518 6.4902-7.3254 13.093-10.435 19.917-2.2308 4.2364-3.7494 8.8377-6.3187 12.891-0.80696 1.3551-1.9459 2.5865-2.6122 4.0253-0.15663 0.33821-0.39372 0.73254-0.27158 1.0847 0.0731 0.21067 0.83819 0.19712 0.66673 0.0545-4.6624-3.8766-9.4865-7.5545-14.23-11.332 6.46-2.0419 12.299-5.6841 17.951-9.3431 10.565-7.1768 21.237-14.168 31.271-22.081 5.8123-4.4803 10.959-9.7079 16.356-14.653 2.1304-1.952 8.0164-7.0843 10.116-8.9231 1.3655-1.3733 2.7622-2.7162 4.0964-4.1199 4.5558-4.793 1.2809-1.4726 4.3017-5.0374 0.23738-0.28013 0.49342-1.0169 0.77571-0.78211 15.424 12.831 17.16 7.676 12.883 15.689-3.6602 6.2864-8.8368 11.494-13.378 17.128-2.8126 3.4895-5.4798 7.0721-8.182 10.646-4.8703 6.8753-9.5004 13.916-13.912 21.092-1.4293 2.6835-2.9946 5.3198-4.2972 8.0698-0.55313 1.1678-1.2343 2.487-0.81465 3.7739-4.6975-3.9165-9.3881-7.8413-14.092-11.75-0.159-0.1321 0.24905 0.42471 0.45572 0.42058 0.44835-9e-3 0.87457-0.23626 1.266-0.45501 2.5228-1.4097 4.6934-3.7162 6.8008-5.6392 7.9292-6.5439 15.398-13.588 22.4-21.111 5.299-5.8742 10.104-12.134 14.34-18.81 2.9388-4.3802 5.505-9.0019 8.4292-13.388 7.0499-9.206 8.7858-4.6509 20.815 6.5912 0.64425 0.60209-0.59871 1.6589-0.89807 2.4883-4.4013 11.021-8.9596 21.96-14.054 32.682-3.4082 7.0744-7.2707 13.907-11.005 20.809-0.25757 0.94919-0.96705 1.9503 0.1026 2.7283 0.30721 0.22342 1.4097 0.47078 1.1162 0.22965-4.5516-3.7394-9.6466-6.8189-13.986-10.803-0.41845-0.38418 1.1193-0.27301 1.6096-0.55985 0.98648-0.57708 1.8529-1.3384 2.7794-2.0076 1.0772-0.97793 2.1794-1.9292 3.2317-2.9338 3.8998-3.7229 7.6155-7.642 11.523-11.358 3.5363-3.3628 4.8462-4.4501 8.4491-7.6096 5.8376-4.9884 11.887-9.749 16.982-15.519 2.9732-3.6467 6.1738-7.0538 9.7099-10.152 2.7108-1.9716 5.5046-3.8864 8.6553-5.092 1.4082-0.53881 2.8646-0.9445 4.2758-1.4752 6.9072-2.5304 2.9557-1.3963 16.15 11.639 0.53196 0.52553-0.66066 1.3418-1.0047 2.0058-2.1241 4.0989-4.4036 8.1137-6.6646 12.138-5.4245 9.3892-10.399 19.026-15.119 28.784-1.9585 4.6185-3.7439 9.26-6.1683 13.661-0.12051 0.46464-0.35196 0.914-0.36153 1.3939-4e-3 0.22318 0.21466 0.39145 0.322 0.58717-4.6717-3.8684-9.3356-7.7463-14.015-11.605-0.16076-0.13257 0.25795 0.36735 0.45809 0.42533 0.51806 0.15007 1.3336-0.40702 1.6757-0.58216 2.6526-1.4635 4.947-3.477 6.8535-5.8187 1.9728-2.5775 3.5594-5.4868 4.9824-8.4031 1.9726-3.7668 4.1132-7.4478 6.0334-11.246 1.8585-4.9546 4.8093-9.3724 7.7777-13.716 1.8694-2.7727 4.1364-5.3434 6.9303-7.2211 1.7817-1.1974 3.7323-2.1063 5.6391-3.0744 9.2519-4.7087 19.1-8.0556 28.412-12.643 8.3113-2.9626 6.1875 0.11747 17.462 11.897 0.0488 0.051-2.6079 4.5437-2.8156 4.8943-1.7225 3.0699-3.4095 6.1316-4.9351 9.301-0.22809 0.40345-0.92444 0.81396-0.68428 1.2104 0.22568 0.37248 1.6137 0.0787 1.2893-0.21181-4.2553-3.8109-9.1788-6.8303-13.422-10.654-0.50779-0.45757 1.3338 0.33067 2.0158 0.37578 1.6509 0.10919 2.9694-0.23009 4.5854-0.51516 3.6122-0.88254 6.5894-2.9761 9.568-5.0783 1.0895-0.76893 5.1008-3.4681 6.1016-4.1438 3.3952-2.1159 6.7572-4.2837 10.139-6.4209 2.0319-1.2842 3.9321-2.629 6.1778-3.4917 5.2678 3.882 11.014 7.1874 15.803 11.646 0.62789 0.5845-0.41466 1.6649-0.6064 2.501-1.1386 4.965-2.7843 9.3544-4.588 14.11-2.051 6.3027-4.7622 12.337-7.6968 18.269-1.0763 1.6868-1.8247 3.5486-2.7368 5.3172-0.66817 1.2957-1.4868 2.4881-2.1316 3.7989-0.10006 0.14759-1.3844 1.9516-1.4796 2.3711-0.0277 0.12225 0.36191 0.34639 0.26524 0.26659-4.7211-3.8974-9.5987-7.6149-14.14-11.72-0.2775-0.25087 0.77614 0.0953 1.1212-0.0492 0.93482-0.39154 1.7545-1.0151 2.6318-1.5227 9.0454-6.4135 17.194-14.002 25.431-21.401 3.3739-3.2216 6.5686-6.6641 9.4526-10.335 2.1134-2.6904 3.9632-5.5612 6.0846-8.2495 1.4842-2.1109 3.2081-4.0376 4.7251-6.1233 0.3372-0.46361 0.70547-0.91181 0.96848-1.4212 0.0829-0.16057-0.0998-0.64932 0.0443-0.54031 5.0733 3.8374 9.9596 7.9159 14.939 11.874-3.9246 6.4011-7.0964 13.232-10.743 19.793-3.6679 5.8474-6.9473 11.924-10.678 17.732-1.208 2.1586-2.5685 4.2376-3.7294 6.423-0.13706 0.25802-1.4458 2.5017-1.1148 3.2198 0.12898 0.27982 0.60229 0.13029 0.90344 0.19543-4.7306-3.7055-9.4612-7.411-14.192-11.116 0.19731 0.0511 0.42552 0.0355 0.59194 0.15321 5.2784 3.732 10.618 7.3882 15.709 11.372 0.527 0.41243-0.33386 1.8496 0.0205 2.638-5.0796-3.7599-10.473-7.1294-15.239-11.28-0.37739-0.32864 0.67201-0.74255 0.98435-1.1335 0.59441-0.74406 1.1856-1.492 1.7347-2.2701 2.8588-4.0506 5.3586-8.3426 7.8871-12.601 3.9721-6.4835 7.2018-13.376 10.596-20.169 2.0237-4.5347 4.6302-8.777 8.1247-12.314 3.0858-2.5842 6.5668-4.4563 10.235-6.0553 2.4796-0.94779 4.8526-2.1701 7.3238-3.1354 0.4568-0.17843 0.99377-0.72261 1.4009-0.44928 16.612 11.151 17.261 5.7012 15.087 14.191-3.5447 9.1187-8.0157 17.861-12.612 26.49-4.3119 7.1116-7.5055 14.862-12.106 21.796-1.1751 1.7801-2.1893 3.6574-3.3641 5.4377-0.27689 0.41958-0.61092 0.80205-0.86131 1.238-0.093 0.16183-0.0103 0.6508-0.15829 0.53706-4.9946-3.8392-9.7731-7.9515-14.66-11.927 0.30652-0.10489 0.64064-0.14985 0.91955-0.31467 1.2619-0.7457 2.5473-2.0258 3.6036-2.9675 3.0171-2.6894 5.9474-5.4532 8.8703-8.245 4.3236-3.9635 8.3009-8.2714 12.196-12.649 0.85265-0.9581 1.6528-1.9648 2.5496-2.8817 0.89697-0.91691 1.8835-1.7418 2.8252-2.6126 4.0717-3.7886 8.3017-7.402 12.397-11.164 1.8913-1.8162 3.9122-3.6632 6.319-4.786 0.3364-0.15694 0.76782-0.57624 1.0586-0.34555 5.1145 4.0571 9.8328 8.5901 14.749 12.885-2.9964 6.5632-6.7508 12.738-9.9214 19.217-0.61479 2.7816-3.4428 5.751-4.0099 8.4179-0.0577 0.2715 0.29687 1.0011 0.0792 0.82894-4.8108-3.8043-9.3679-7.9188-14.052-11.878 0.15753 0.0897 0.30444 0.33696 0.47258 0.26917 2.0892-0.8424 4.3611-3.9648 5.7644-5.5586 3.0022-3.4096 2.1888-2.4879 5.3486-5.8854 5.2028-6.0447 11.747-10.563 18.276-15.028 7.9812-5.343 16.044-10.572 24.214-15.622 5.5689-2.8388 9.744-7.4169 14.261-11.583 3.7096-2.9498 7.631-5.6248 11.587-8.2316 6.741-3.0293 2.5944-1.5068 15.854 11.98 0.47708 0.48527-0.59761 1.2231-0.91722 1.8239-1.3026 2.4487-2.7043 4.8403-4.1423 7.2108-2.138 3.8239-4.4714 7.5213-6.9743 11.112-0.74993 1.1523-1.7419 2.0209-2.8192 2.8441l-14.654-11.81c1.0066-0.59121 1.8779-1.2581 2.5716-2.2242 2.606-3.4312 5.0621-6.9752 7.2322-10.702 1.2323-2.1362 1.666-2.7743 2.691-4.9891 0.33283-0.71918 0.67085-1.4399 0.91987-2.1922 0.15393-0.46505-0.13475-1.6978 0.28307-1.4421 8.5416 5.228 19.774 14.938 14.378 10.286-4.2988 1.7468-7.8573 4.9836-11.631 7.6068-4.7196 4.1642-9.0281 8.9068-14.84 11.605-8.4333 4.5464-16.499 9.7244-24.137 15.514-6.423 4.3648-12.828 8.8681-18.031 14.698-2.8921 3.1983-2.4673 2.6318-5.122 5.9421-2.2686 2.8288-4.3707 5.8296-7.3123 8.0242-4.934-4.1344-10.102-8.0046-14.802-12.403-0.27709-0.25931 0.25157-0.71778 0.41633-1.0596 0.26543-0.55077 0.56905-1.0826 0.87202-1.6136 1.24-2.1736 2.521-4.3224 3.6131-6.5785 2.8556-5.1257 6.6442-10.943 8.3761-16.52 0.23384-0.75305 0.29329-1.5495 0.43993-2.3243 4.8956 3.4763 9.7303 7.0398 14.687 10.429 0.22043 0.15073-0.16428-0.62825-0.42663-0.67804-0.42988-0.0816-0.86791 0.16947-1.2631 0.35734-1.871 0.8895-3.4215 2.3919-4.9558 3.7366-4.1895 3.6957-8.4348 7.3266-12.752 10.873-6.2637 5.6131-11.463 12.312-17.721 17.949-4.3302 4.3194-8.4572 8.847-12.829 13.118-5.0381-3.9294-10.23-7.6689-15.114-11.788-0.18707-0.15777 0.33906-0.3531 0.50245-0.53528 0.30591-0.34107 0.62536-0.67154 0.90527-1.0343 1.3096-1.6972 2.2743-3.6245 3.588-5.3196 4.8605-6.6279 8.8569-13.819 12.802-21.017 3.4153-6.4183 6.6106-12.844 9.1722-19.658 0.48865-1.2998 1.0154-2.5897 1.3942-3.9257 0.28262-0.9969 0.38955-2.0354 0.58433-3.0531-1.2518-7.1688-0.83249-2.736 14.318 8.5757 0.35836 0.26757-0.89455-0.22003-1.3344-0.13938-0.95253 0.17463-4.0763 1.5853-4.8151 1.9105-0.82983 0.36525-1.655 0.74102-2.4825 1.1115-3.3753 1.6548-6.6429 3.5202-9.7522 5.6392-3.4938 3.2752-5.8922 7.4368-7.9214 11.744-3.646 6.6444-7.3477 13.268-11.406 19.671-2.4777 4.3729-4.8708 8.7677-7.227 13.205-0.45422 0.85548-0.94402 1.6916-1.4065 2.5427-0.28256 0.51999-0.30695 1.85-0.82846 1.5703-5.6023-3.0051-10.596-7.0272-15.895-10.541 0.0492-0.42945 0.18316-0.66489-0.18903-1.0079-0.15675-0.14446-0.73924-0.42129-0.56708-0.2956 4.9032 3.5796 9.8946 7.0385 14.766 10.661 0.18111 0.13469-0.43734-0.11177-0.65602-0.16765-5.2503-3.8491-10.501-7.6982-15.751-11.547 0.0205-0.43959-0.0385-0.89024 0.0616-1.3188 0.77572-3.3192 4.0605-6.7811 5.583-9.8069 3.8007-5.7014 7.2333-11.629 10.936-17.392 3.7456-6.5624 7.242-13.304 9.7927-20.431 5.2288 3.4886 10.596 6.7778 15.686 10.466 0.19928 0.14438-0.36491 0.33222-0.52454 0.5195-0.39243 0.46038-0.74003 0.95759-1.1293 1.4207-1.6544 1.9683-3.5037 3.7692-5.0207 5.854-5.09 6.4426-10.086 12.976-16.338 18.38-8.459 7.1702-16.613 14.666-24.893 22.039-0.81721 0.7135-1.6076 1.4589-2.4516 2.1405-0.56066 0.45275-1.1487 1.644-1.7577 1.2587-17.609-11.14-18.281-7.1811-13.478-15.092 1.6061-3.0297 3.5399-5.8859 5.2243-8.8759 3.1462-5.7065 5.7511-11.657 7.9963-17.775 1.3294-3.6492 2.7662-7.308 3.4066-11.161 0.15969-0.96082 0.29779-1.9354 0.27369-2.9091-0.0134-0.54-0.84848-1.851-0.38464-1.5742 5.0774 3.0301 9.7388 6.7083 14.608 10.062-0.43729-0.0558-0.88441-0.27523-1.3119-0.16747-0.87995 0.22185-4.4491 2.3121-4.9725 2.6089-3.4548 1.959-6.8622 3.9966-10.12 6.2741-5.0552 3.6689-9.8242 7.9451-15.781 10.099-1.1944 0.27347-5.8828 1.6399-6.9618 0.97104-5.9585-3.6934-18.193-6.348-16.427-13.132 0.10775-0.41385 0.43211-0.73811 0.64817-1.1072 1.6445-3.1289 3.4432-6.1536 5.1633-9.2436 0.46064-0.86075 1.344-2.4471 1.7281-3.3938 0.14956-0.36861 0.0139-1.3602 0.34643-1.142 5.1141 3.3558 9.7251 7.4242 14.684 11.005 0.28448 0.20539-0.28105-0.76044-0.62016-0.85055-0.68308-0.18151-1.4112 0.0822-2.1168 0.1233-9.8623 3.0566-19.363 7.251-28.251 12.514-0.94395 0.52561-4.2101 2.3094-5.2394 3.0041-2.6344 1.778-4.7512 4.2346-6.5981 6.7894-3.0795 4.1927-5.6415 8.6962-7.5732 13.535-1.9396 3.7922-3.87 7.5871-5.8294 11.368-1.5195 3.0375-3.1473 6.07-5.1453 8.819-2.0382 2.4401-4.5142 4.5515-7.1704 6.2943-0.31364 0.24039-3.0495 2.2349-3.4648 1.9329-13.449-9.7767-17.627-6.8992-14.117-14.892 2.4581-4.2885 4.2802-8.8834 6.6864-13.201 5.1899-9.4883 10.674-18.816 15.587-28.455 1.529-3.1727 3.0592-6.1677 4.3381-9.4431 0.41481-1.0624 0.79249-2.1424 1.0872-3.2442 0.12728-0.47586-0.24819-1.7229 0.17309-1.4676 18.152 10.999 20.909 10.975 13.948 10.58-4.6513 1.1858-8.7811 2.6835-12.416 5.9717-3.4374 3.1016-7.0888 5.9754-9.9622 9.6633-0.73442 0.85045-1.4207 1.745-2.2032 2.5514-4.6635 4.8054-10.465 8.3777-15.52 12.724-3.632 2.9959-5.0581 4.0508-8.488 7.3944-4.9162 4.7926-9.3741 10.043-14.208 14.916-0.8686 0.84722-1.6976 1.737-2.6058 2.5416-0.6618 0.58635-1.308 2.0244-2.0967 1.6248-3.2667-1.6551-18.421-7.3422-16.637-13.887 0.17847-0.65475 0.56519-1.234 0.84778-1.851 4.0926-6.5886 8.2623-13.138 11.921-19.983 5.2997-10.574 10.214-21.392 12.616-33.051-1.01-7.6728-0.83502-3.0661 14.915 8.6459 0.25419 0.18902-0.63749 0.0839-0.92551 0.21578-1.6028 0.73397-2.8194 2.0866-3.8794 3.4435-2.9729 4.3251-5.6527 8.8546-8.6304 13.179-4.3521 6.7504-9.7729 12.676-15.228 18.548-7.0558 7.4537-14.256 14.768-21.899 21.626-2.1558 2.1334-4.2238 4.5637-6.5749 6.4894-0.0197 0.0162-2.7932 1.8477-2.8769 1.7889-5.2856-3.7102-9.9505-8.2339-14.926-12.351 0.65894-2.3736 2.0686-4.3368 3.2551-6.4723 0.51244-0.92232 0.98227-1.8678 1.4866-2.7945 0.52393-0.96285 1.0654-1.9161 1.598-2.8741 4.4069-7.2552 9.9721-13.698 14.924-20.578 5.0963-6.4231 3.1278-3.8977 8.2937-10.596 4.3268-5.6101 8.9995-11.086 11.962-17.586 2.7927-8.4338-0.10917-2.3919 15.888 7.9099 0.25645 0.16514 0.0913-0.9689-0.2039-0.89206-0.79131 0.20598-1.3413 0.93851-1.9723 1.4585-1.1193 0.92245-2.1884 1.9043-3.2746 2.8655-1.4759 1.3061-2.9411 2.6242-4.4116 3.9363-1.6974 1.5459-3.4177 3.067-5.0922 4.6377-6.9714 6.5394-13.406 13.687-21.349 19.123-10.199 7.6232-20.749 14.756-30.714 22.694-5.7032 3.7872-11.642 7.1697-17.585 10.561-15.69-10.592-19.959-7.0267-12.726-17.394 2.7009-3.8182 4.5467-8.1354 6.6659-12.286 3.2326-6.8229 6.9117-13.402 10.937-19.793 5.637-8.8943 11.301-17.793 15.877-27.298 0.49316-1.0502 1.0457-2.0745 1.4795-3.1505 0.2406-0.59675-0.0272-2.161 0.53812-1.8537 27.25 14.807 19.528 6.2851 14.569 11.302-1.5499 1.568-2.8693 3.3557-4.539 4.8107-7.8338 8.3715-14.451 17.824-22.99 25.548-5.3876 5.1269-10.826 10.161-16.486 14.989-2.9028 2.4762-5.3737 4.6334-8.5306 6.709-1.027 0.67519-2.1297 1.2274-3.1946 1.841-0.82409 0.17296-1.7507 0.95292-2.4723 0.51887-0.40757-0.24518-18.115-7.192-16.257-13.591 0.68534-2.3603 3.4074-5.0207 4.4759-7.1961 5.5268-8.1824 10.885-16.493 15.469-25.25 11.479-21.519-4.9453 9.3532 5.6762-10.87 0.67116-1.2778 0.6942-4.2203 2.0752-3.8005 5.9632 1.8125 11.134 5.7095 16.191 9.3524 1.3062 0.94091-6.1083 2.4934-3.4887 3.3394-5.617 5.3263-11.317 10.531-17.799 14.82-3.4682 2.5208-6.8127 4.9642-10.755 6.6911-0.49122 0.21518-1.0505 0.91054-1.4909 0.60457-5.3646-3.7268-10.191-8.1735-15.287-12.26 0.62033-3.0593 3.1113-5.3125 5.0332-7.6262 2.4505-3.0084 4.5767-6.2421 6.3848-9.6791 2.2599-4.411 4.3022-9.0943 5.3774-13.939 8e-3 -1.3404 0.14496-2.5497-0.31124-3.8415-0.16899-0.47855-1.1816-1.6023-0.76049-1.319 4.7706 3.2095 9.2315 6.8588 13.927 10.177 0.35387 0.25007-0.49589-0.75616-0.87992-0.95688-0.42687-0.22311-0.94913-0.16478-1.4237-0.24717-0.60542 0.0727-1.2301 0.05-1.8163 0.21816-3.5397 1.0155-6.9491 3.7521-10.167 5.4911-3.4359 2.3961-7.0272 4.5722-10.446 6.9993l-14.566-12.068z" fill="url(#linearGradient3056)" filter="url(#filter5130)"/>
        <path transform="matrix(.047671 0 0 .047671 -5.6753 7.0696)" d="m396.99 476.58c0 10.042-8.593 18.183-19.193 18.183-10.6 0-19.193-8.1407-19.193-18.183 0-10.042 8.593-18.183 19.193-18.183 10.6 0 19.193 8.1407 19.193 18.183z" fill="url(#radialGradient3058)" filter="url(#filter5072)" stroke="#fff744" stroke-dashoffset="20" stroke-linecap="square" stroke-linejoin="round" stroke-miterlimit="10" stroke-width="40"/>
      </g>
      <path d="m12.752 37.207c-0.01386-0.03613-0.0078-0.0844 0.01351-0.10726 0.07803-0.08376 0.1531-1.1795 0.12184-1.7783-0.03577-0.6851-0.13384-1.4325-0.23811-1.8148-0.09604-0.35208-0.2549-0.92337-0.33804-1.2156-0.03729-0.1311-0.09121-0.34025-0.11981-0.46479-0.0454-0.19769-0.06814-0.22726-0.17915-0.23293-0.11233-0.0057-0.11465-0.0089-0.01989-0.02715 0.06048-0.01165 0.10726-0.05559 0.10726-0.10077 0-0.04924 0.04134-0.08279 0.10726-0.08705 0.05899-0.0038 0.33731-0.02311 0.61849-0.04287 0.44204-0.03106 0.51511-0.0258 0.53991 0.03883 0.02514 0.06551 0.19795 0.07464 1.3985 0.0739 1.489-9.25e-4 2.0444 0.0196 3.5331 0.13057 1.0466 0.07801 1.4472 0.15025 1.853 0.33408 0.14082 0.0638 0.26417 0.11599 0.27411 0.11599 0.04098 0 0.01-0.17792-0.14324-0.8228-0.08872-0.37336-0.18705-0.81827-0.2185-0.9887-0.03145-0.17043-0.08757-0.45354-0.12471-0.62914-0.08725-0.41256-0.08533-0.67608 0.0072-0.98773 0.04111-0.13844 0.06487-0.26159 0.05279-0.27367-0.01208-0.01208-0.17979 0.08393-0.37269 0.21334-2.0207 1.3556-4.45 2.2594-6.9293 2.5779-1.9144 0.24594-3.8038 0.33772-5.077 0.24662-0.43259-0.030954-1.0761-0.076446-1.4301-0.10109-1.0015-0.069738-2.1694-0.19162-2.5055-0.26147l-0.1458-0.0303-0.10861 0.58491c-0.059733 0.3217-0.14934 0.68824-0.19912 0.81454-0.10254 0.26014-0.1047 0.25869 0.2752 0.18563 0.12583-0.0242 0.43258-0.06907 0.68166-0.09971 0.24908-0.03064 0.57086-0.07446 0.71507-0.09737s0.36945-0.05297 0.50055-0.06679c0.1311-0.01383 0.37779-0.04531 0.54822-0.06997 0.28997-0.04195 0.56982-0.07609 1.5731-0.1919 0.22286-0.02572 0.67335-0.07831 1.0011-0.11685 0.32774-0.03854 0.82113-0.09243 1.0964-0.11974 0.2753-0.02732 0.7379-0.07393 1.028-0.10358 0.2901-0.02965 0.56897-0.04472 0.61972-0.03349s-0.06862 0.03583-0.26526 0.05465c-0.33572 0.03215-0.53558 0.05325-1.6685 0.1762-0.24908 0.02703-0.61376 0.06966-0.81041 0.09472-0.19664 0.02507-0.45407 0.05701-0.57205 0.07098-0.11799 0.01397-0.46122 0.05798-0.76274 0.09779-0.30152 0.03981-0.70911 0.09164-0.90575 0.11518-0.19664 0.02354-0.5935 0.07757-0.88191 0.12007s-0.66382 0.09676-0.83424 0.12058c-0.17042 0.02382-0.52251 0.07599-0.78242 0.11594-0.25991 0.03995-0.54644 0.07263-0.63674 0.07263-0.13769 0-0.15863-0.01346-0.12979-0.08342 0.20619-0.50008 0.43521-1.6291 0.3361-1.6569-0.027739-0.0078-0.15233-0.0405-0.27687-0.07269-0.12454-0.03219-0.22644-0.07719-0.22644-0.1s0.12688-0.04148 0.28196-0.04148h0.28196l0.034464-0.36778c0.097805-1.0437-0.14676-2.8899-0.42392-3.2001-0.085426-0.09561-0.12137-0.27008-0.055282-0.26835 0.28653 0.0075 2.1627 0.35051 3.5277 0.64495 1.5985 0.34482 3.4363 0.45677 5.4345 0.33103 1.5028-0.09456 2.8584-0.21855 3.623-0.3314 0.15731-0.02322 0.46837-0.06711 0.69123-0.09755 0.65754-0.0898 1.9982-0.32347 2.4551-0.4279 0.10488-0.02397 0.35157-0.07875 0.54822-0.12171 1.1116-0.24289 1.4029-0.32937 1.5528-0.46104 0.12736-0.11182 0.1608-0.1225 0.20746-0.06629 0.04397 0.05297 0.02018 0.12243-0.11346 0.33134-0.19246 0.30086-0.52297 1.0272-0.4848 1.0654 0.01394 0.01394 0.1175-0.04557 0.23014-0.13225 0.33894-0.26082 0.34816-0.26492 0.23587-0.10477-0.05952 0.08488-0.22288 0.24389-0.36302 0.35334-0.2365 0.18471-0.26101 0.22327-0.34129 0.53689-0.15868 0.6199-0.12887 0.88826 0.32508 2.927 0.13305 0.59755 0.17893 0.88845 0.1454 0.92197-0.03353 0.03353-0.15968-0.0041-0.39982-0.1192-0.51689-0.24778-0.7192-0.30196-1.3519-0.36204-0.31463-0.02987-0.78657-0.07498-1.0488-0.10024-0.60746-0.05852-1.9838-0.12788-3.3791-0.1703l-1.0909-0.03317 0.03365 0.28156c0.05189 0.43421 0.15576 0.79929 0.41628 1.4632 0.2822 0.71913 0.92608 2.0094 1.1333 2.2711 0.08018 0.10123 0.14578 0.21932 0.14578 0.26243 0 0.04311-0.23827 0.3357-0.52949 0.65022-0.40386 0.43617-0.54402 0.55979-0.59072 0.52103-0.04936-0.04096-0.04375-0.09683 0.02894-0.28814 0.11613-0.30563 0.11686-0.76346 0.0017-1.0989-0.28896-0.84203-0.64194-1.6997-0.73982-1.7976-0.06779-0.06779-0.06995-0.05737-0.02346 0.11289 0.02817 0.10316 0.0686 0.20902 0.08984 0.23524 0.09091 0.11219 0.37638 1.5777 0.41327 2.1217l0.0275 0.4055-0.47224 0.32149c-0.25973 0.17682-0.48552 0.32148-0.50175 0.32148-0.01623 0-0.04085-0.02956-0.05472-0.0657l6.1e-5 8e-6zm-1.9157-6.37c0.52438-0.02483 1.0028-0.05922 1.0631-0.0764 0.10816-0.03082 0.10765-0.03249-0.03619-0.11996-0.18271-0.11111-0.33528-0.35625-0.33551-0.53907-9.5e-5 -0.0768-0.02477-0.20763-0.05482-0.29075-0.07604-0.21028-0.02176-0.37482 0.20465-0.62045 0.37384-0.40556 0.9857-0.41495 1.3873-0.02128 0.37771 0.37025 0.39683 0.92984 0.04436 1.2985-0.20208 0.21139-0.17726 0.21865 0.37966 0.11093 0.19289-0.03731 0.59741-0.11554 0.89893-0.17386 1.5827-0.30608 3.564-1.0951 5.2142-2.0763 0.44135-0.26244 0.47668-0.29502 0.56224-0.5184 0.09492-0.24783 0.16806-0.41378 0.35327-0.80167l0.10964-0.22962-0.15216 0.03101c-0.08369 0.01705-0.37741 0.08395-0.65271 0.14867-0.74542 0.17522-0.84352 0.19625-1.311 0.28109-0.23597 0.04283-0.50412 0.09586-0.59589 0.11784-0.17048 0.04084-0.50895 0.09776-1.1441 0.19239-0.19664 0.0293-0.5506 0.08258-0.78657 0.11842-0.71181 0.10809-1.3262 0.17272-3.1701 0.33347-0.54044 0.04712-1.4218 0.07351-2.5027 0.07495-1.6245 0.0022-2.1828-0.03438-3.2893-0.21525-0.078657-0.01286-0.29318-0.04746-0.47671-0.07689-0.46986-0.075347-1.9552-0.37169-2.2405-0.447-0.1311-0.03461-0.36707-0.08954-0.52438-0.12209-0.15731-0.03254-0.34822-0.07831-0.42423-0.1017-0.20916-0.06436-0.22755-0.05384-0.15482 0.08857 0.093204 0.18249 0.29345 1.0444 0.36618 1.5762 0.040713 0.29767 0.05096 0.69204 0.031095 1.1966l-0.029631 0.75265 1.4405 0.03621c0.79227 0.01992 1.7837 0.05116 2.2032 0.06944 1.187 0.05171 2.5795 0.05313 3.623 0.0037zm1.9472-0.50276c0.15708-0.15255 0.17401-0.19347 0.17264-0.41712-0.0016-0.26625-0.06064-0.37868-0.27185-0.51795-0.28913-0.19066-0.77516-0.04639-0.98994 0.29384-0.13953 0.22103-0.14227 0.24604-0.04713 0.43001 0.1218 0.23553 0.38624 0.38037 0.69446 0.38037 0.24207 0 0.28429-0.01616 0.44181-0.16914zm-1.244 1.2804c0.04588-0.01199 0.12096-0.01199 0.16684 0 0.04588 0.01199 0.0083 0.0218-0.08342 0.0218-0.09177 0-0.12931-0.0098-0.08342-0.0218z"/>
      <g fill="none" stroke="#fff">
        <path transform="matrix(.047671 0 0 .047671 -14.462 14.647)" d="m562.13 356.51 13.132 52.023s4.2931 21.213 3.5355 31.315l-2.5254 28.284" filter="url(#filter5098)" stroke-width="2"/>
        <path transform="matrix(.047671 0 0 .047671 -14.462 14.647)" d="m586.87 400.2 10.859 27.022c5.476 11.365 5.1231 17.682 5.3033 21.466 0.25254 5.3033-1.0102 9.0914-1.0102 9.0914" filter="url(#filter5118)" stroke-width="2"/>
        <g stroke-width="1px">
          <path transform="matrix(.047671 0 0 .047671 -14.462 14.647)" d="m375.06 339.42c4.5457 0.75762 91.546 4.6479 105.68 4.0765 15.461 0.67433 43.596-1.1148 65.566-2.1249" filter="url(#filter5170)"/>
          <path transform="matrix(.047671 0 0 .047671 -14.462 14.647)" d="m580.4 337.7s28.116-4.7227 45-9.2857c15.91-4.2932 42.174-15.833 47.59-18.111 8.46-3.5355 43.058-21.466 49.497-26.517" filter="url(#filter5174)"/>
          <path transform="matrix(.047671 0 0 .047671 -14.462 14.647)" d="m544.33 313.95c1.1607-4.9107 8.125-13.75 18.125-14.286 9.8074-0.5314 19.35 8.6902 19.643 16.071 0.98214 7.6786-3.3929 14.375-7.5 18.214" filter="url(#filter5220)"/>
        </g>
      </g>
    </g>
  </g>
</svg>
