<?xml version="1.0" encoding="UTF-8"?>
<svg width="22" height="22" version="1.0" xmlns="http://www.w3.org/2000/svg" xmlns:xlink="http://www.w3.org/1999/xlink">
  <defs>
    <linearGradient id="linearGradient2408" x1="3" x2="20" y1="1" y2="21" gradientUnits="userSpaceOnUse">
      <stop stop-color="#fff" offset="0"/>
      <stop stop-color="#d1d1d1" offset="1"/>
    </linearGradient>
  </defs>
  <g>
    <rect x="3" y="1" width="17" height="20" fill="url(#linearGradient2408)"/>
    <g>
      <rect x="10" y="3" width="8" height="1"/>
      <rect x="5" y="3" width="2" height="1"/>
      <rect x="8" y="3" width="1" height="1"/>
      <rect x="10" y="6" width="8" height="1"/>
      <rect x="5" y="6" width="2" height="1"/>
      <rect x="8" y="6" width="1" height="1"/>
      <rect x="10" y="9" width="8" height="1"/>
      <rect x="5" y="9" width="2" height="1"/>
      <rect x="8" y="9" width="1" height="1"/>
      <rect x="10" y="12" width="8" height="1"/>
      <rect x="10" y="15" width="8" height="1"/>
      <rect x="5" y="12" width="2" height="1"/>
      <rect x="8" y="12" width="1" height="1"/>
      <rect x="5" y="15" width="2" height="1"/>
      <rect x="8" y="15" width="1" height="1"/>
      <rect x="10" y="18" width="8" height="1"/>
      <rect x="5" y="18" width="2" height="1"/>
      <rect x="8" y="18" width="1" height="1"/>
    </g>
    <path d="m2 0v22h19v-22h-19zm1 1h17v20h-17v-20z" fill="#7f7f7f"/>
  </g>
</svg>
