<?xml version="1.0" encoding="UTF-8"?>
<svg width="48" height="48" version="1.0" xmlns="http://www.w3.org/2000/svg">
  <rect x="4" y="9" width="0" height="0" fill="#80b3ff" fill-opacity=".99608"/>
  <rect x="2" y="6" width="44" height="35.001" fill="#80b3ff" fill-opacity=".99608" fill-rule="evenodd"/>
  <path d="m2 29c6.6 5.525 37.4-5.6875 44-0.08125l-4e-6 13.081h-44z" fill="#165016" fill-rule="evenodd"/>
  <path d="m22.498 35.259v-17.328q-4.8366 3.7131-6.5123 3.7131-0.79975 0-1.4281-0.62838-0.60933-0.64742-0.60933-1.4853 0-0.97113 0.60933-1.4281t2.1517-1.1806q2.304-1.0854 3.675-2.285 1.39-1.1996 2.4564-2.6849 1.0663-1.4853 1.39-1.828 0.32371-0.34275 1.2187-0.34275 1.0092 0 1.6185 0.78071 0.60933 0.78071 0.60933 2.1517v21.803q0 3.8274-2.6087 3.8274-1.1615 0-1.8661-0.78071t-0.70454-2.304z" fill="#fff" stroke-width="2.4373" aria-label="1"/>
</svg>
