<?xml version="1.0" encoding="UTF-8"?>
<svg width="48" height="48" version="1.0" xmlns="http://www.w3.org/2000/svg">
  <rect x="4" y="9" width="0" height="0" fill="#80b3ff" fill-opacity=".99608"/>
  <g transform="matrix(2 0 0 2 2 2)">
    <rect y="2" width="22" height="17.501" fill="#80b3ff" fill-opacity=".99608" fill-rule="evenodd"/>
    <path d="m-1.045e-7 13.5c3.3 2.7625 18.7-2.8437 22-0.040627l-2e-6 6.5406h-22z" fill="#165016" fill-rule="evenodd"/>
    <path d="m10.118 9.4142q0.87592 0 1.5043-0.51413 0.6379-0.51413 0.6379-1.4757 0-0.73311-0.5046-1.2568-0.5046-0.53317-1.3615-0.53317-0.58077 0-0.96161 0.16185-0.37131 0.16185-0.59029 0.42844-0.21898 0.26658-0.41892 0.6855-0.19042 0.41892-0.35227 0.79023-0.095208 0.19994-0.34275 0.31419-0.24754 0.11425-0.57125 0.11425-0.38083 0-0.70454-0.30467-0.31419-0.31419-0.31419-0.82831 0-0.49508 0.29515-1.0378 0.30467-0.55221 0.87592-1.0473 0.58077-0.49508 1.4376-0.79023 0.85688-0.30467 1.9137-0.30467 0.92352 0 1.6852 0.25706 0.76167 0.24754 1.3234 0.72358 0.56173 0.47604 0.84736 1.1044 0.28563 0.62838 0.28563 1.352 0 0.95208-0.41892 1.6376-0.4094 0.67598-1.1806 1.3234 0.74263 0.39988 1.2472 0.914 0.51413 0.51413 0.77119 1.1425 0.25706 0.61886 0.25706 1.3424 0 0.8664-0.35227 1.6757-0.34275 0.80927-1.0187 1.4472-0.67598 0.62838-1.609 0.99017-0.92352 0.35227-2.047 0.35227-1.1425 0-2.047-0.4094-0.90448-0.4094-1.4948-1.0187-0.58077-0.61886-0.88544-1.2758-0.29515-0.65694-0.29515-1.0854 0-0.55221 0.35227-0.88544 0.36179-0.34275 0.89496-0.34275 0.26658 0 0.51413 0.16186 0.24754 0.15233 0.32371 0.37131 0.49508 1.3234 1.0568 1.9708 0.57125 0.6379 1.5995 0.6379 0.59029 0 1.133-0.28562 0.55221-0.29515 0.90448-0.8664 0.36179-0.57125 0.36179-1.3234 0-1.1139-0.60933-1.7423-0.60934-0.6379-1.6947-0.6379-0.19042 0-0.59029 0.03808-0.39988 0.03808-0.51413 0.03808-0.52365 0-0.80927-0.25706-0.28563-0.26658-0.28563-0.7331 0-0.457 0.34275-0.73311 0.34275-0.28563 1.0187-0.28563z" fill="#fff" stroke-width="1.2187" aria-label="3"/>
  </g>
</svg>
