<?xml version="1.0" encoding="UTF-8"?>
<svg width="48" height="48" version="1.0" xmlns="http://www.w3.org/2000/svg">
  <rect x="4" y="9" width="0" height="0" fill="#80b3ff" fill-opacity=".99608"/>
  <g transform="matrix(2 0 0 2 2 2)">
    <rect y="2" width="22" height="17.501" fill="#80b3ff" fill-opacity=".99608" fill-rule="evenodd"/>
    <path d="m-1.045e-7 13.5c3.3 2.7625 18.7-2.8437 22-0.040627l-2e-6 6.5406h-22z" fill="#165016" fill-rule="evenodd"/>
    <path d="m9.1281 15.593h4.9699q0.74263 0 1.133 0.30467t0.39036 0.82831q0 0.46652-0.31419 0.79023-0.30467 0.32371-0.93304 0.32371h-7.0073q-0.71406 0-1.1139-0.39036-0.39988-0.39988-0.39988-0.93304 0-0.34275 0.25706-0.90448 0.25706-0.57125 0.56173-0.89496 1.2663-1.3139 2.285-2.2469 1.0187-0.94256 1.4567-1.2377 0.78071-0.55221 1.2948-1.1044 0.52365-0.56173 0.79023-1.1425 0.2761-0.59029 0.2761-1.152 0-0.60933-0.29515-1.0854-0.28562-0.48556-0.79023-0.75215-0.49508-0.26658-1.0854-0.26658-1.2472 0-1.9613 1.0949-0.095209 0.14281-0.32371 0.78071-0.21898 0.6379-0.5046 0.98065-0.2761 0.34275-0.81879 0.34275-0.47604 0-0.79023-0.31419t-0.31419-0.85688q0-0.65694 0.29515-1.371t0.87592-1.2948q0.59029-0.58077 1.4853-0.93304 0.90448-0.36179 2.1136-0.36179 1.4567 0 2.4849 0.457 0.66646 0.30467 1.1711 0.83783t0.78071 1.2377q0.28562 0.69502 0.28562 1.4472 0 1.1806-0.59029 2.1517-0.58077 0.96161-1.1901 1.5138-0.60934 0.54269-2.047 1.7138-1.4281 1.1711-1.9613 1.8185-0.2285 0.25706-0.46652 0.61886z" fill="#fff" stroke-width="1.2187" aria-label="2"/>
  </g>
</svg>
