<?xml version="1.0" encoding="UTF-8"?>
<svg width="22" height="22" version="1.0" xmlns="http://www.w3.org/2000/svg" xmlns:xlink="http://www.w3.org/1999/xlink">
  <defs>
    <filter id="filter5401" x="-.21189" y="-.21189" width="1.4238" height="1.4238">
      <feGaussianBlur stdDeviation="0.49995"/>
    </filter>
  </defs>
  <path d="m18 10-6 4.6e-6v-4h-12l1.8e-6 13h18v-9z" fill="#80b3ff" fill-rule="evenodd"/>
  <path d="m18 17c-1.1491 1.2583-4.8215 0.81223-8-4e-6l2e-6 -3c-3.7791-0.746-8.6661-1.4821-10 8e-6l2.1e-6 5 8 9e-6v3l10-4e-6 2e-6 -5z" fill="#165016" fill-rule="evenodd"/>
  <g fill="none" stroke="#f60" stroke-width="1px">
    <path d="m7.5 17v-3"/>
    <path d="m10.5 21v-3"/>
    <path d="m16.5 11v3"/>
    <path d="m6.5 7v3"/>
  </g>
  <g fill-rule="evenodd">
    <path d="m13.5 1.5002-2 2 2.5 2.5-2.5 2.5 2 2 2.5-2.5 2.5 2.5 2-2-2.5-2.5 2.5-2.5-2-2-2.5 2.5-2.5-2.5z" filter="url(#filter5401)" stroke="#000"/>
    <path d="m13 1.5002-2 2 2.5 2.5-2.5 2.5 2 2 2.5-2.5 2.5 2.5 2-2-2.5-2.5 2.5-2.5-2-2-2.5 2.5-2.5-2.5z" fill="#f00"/>
    <path d="m13.5 0.7815-2.7188 2.7188h1.4062l1.3125-1.3125 2.5 2.5312 2.5-2.5312 1.3125 1.3125h1.4062l-0.375-0.34375-2-2-0.34375-0.375-0.34375 0.375-2.1562 2.1562-2.5-2.5312zm-0.1875 5.2188-2.5312 2.5h1.4062l2.5312-2.5h-0.71875-0.6875zm3.9688 0 2.5312 2.5h1.4062l-0.375-0.34375-2.1562-2.1562h-1.4062z" fill="#500"/>
    <path d="m13.5 11.219-2.7188-2.7188h1.4062l1.3125 1.3125 2.5-2.5312 2.5 2.5312 1.3125-1.3125h1.4062l-0.375 0.34375-2 2-0.34375 0.375-0.34375-0.375-2.1562-2.1562-2.5 2.5312zm-0.1875-5.2188-2.5312-2.5h1.4062l2.5312 2.5h-0.71875-0.6875zm3.9688 0 2.5312-2.5h1.4062l-0.375 0.34375-2.1562 2.1562h-1.4062z" fill="#a00"/>
  </g>
</svg>
