<?xml version="1.0" encoding="UTF-8"?>
<svg width="22" height="22" version="1.0" xmlns="http://www.w3.org/2000/svg">
  <g fill-rule="evenodd">
    <rect transform="matrix(.5 0 0 .53333 -1.05e-7 1.9333)" x="2" y="2" width="40" height="30" fill="#80b3ff"/>
    <path transform="matrix(.33333 0 0 .34783 .33333 -.47826)" d="m2 36c9 8.5 51-8.75 60-0.12499l-7e-6 20.125h-60v-20z" fill="#165016"/>
    <rect transform="matrix(.17778 0 0 .34783 .64444 -.47826)" x="2" y="10" width="60" height="46" fill="#ff9f60" opacity=".667"/>
    <path transform="matrix(.29436 0 0 .38462 1.4917 -1.6923)" d="m32.281 7v52h3.4375v-52h-3.4375z"/>
  </g>
  <g transform="translate(23.634 -1.3024)">
    <path d="m-9.8529 7.283-9.0873 9.9835-0.94332 2.5219 0.73952 0.67314 2.4224-1.1757 9.0873-9.9835-2.2186-2.0194z" fill="#fff"/>
    <path d="m-15.5 13.5-3.4402 3.7665-0.94332 2.5219 0.73952 0.67314 2.4224-1.1757 5.2217-5.7859h-4z" fill="#808080"/>
    <path d="m-9.8529 7.283-9.0873 9.9835-0.94332 2.5219 0.73952 0.67314 2.4224-1.1757 9.0873-9.9835-2.2186-2.0194z" fill="none" stroke="#000" stroke-width=".34114"/>
    <path d="m-5.3779 4.5951c-0.61454-0.55938-1.5596-0.51497-2.119 0.099573l-1.6828 1.8488-1.479-1.3463c-0.61454-0.55938-1.5596-0.51497-2.119 0.099573-0.55938 0.61454-0.51497 1.5596 0.09957 2.119l5.1766 4.712c0.61454 0.55938 1.5596 0.51497 2.119-0.09957 0.55938-0.61454 0.51497-1.5596-0.099573-2.119l-1.479-1.3463 1.6828-1.8488c0.55938-0.61454 0.51497-1.5596-0.099573-2.119z" fill="#ff0" stroke="#000" stroke-width=".35355"/>
  </g>
</svg>
