<?xml version="1.0" encoding="UTF-8"?>
<svg width="22" height="22" version="1.0" xmlns="http://www.w3.org/2000/svg">
  <g>
    <g transform="matrix(1.1 0 0 .97321 1.045e-7 2.0112)" fill-rule="evenodd" opacity=".5">
      <rect y="1" width="20" height="16" d="m 0.70000009,1.000001 c 6.43333331,0 12.86666691,0 19.29999991,0 C 20,6.333334 20,11.666667 20,17 13.38,17 6.76,17 0.14000005,17 0.32666667,11.666667 0.51333335,6.333334 0.7,1.000001 z" fill="#80b3ff" opacity="1"/>
      <path d="m-9.5e-8 10.5c3 2.9565 17-3.0435 20-0.04348l-2e-6 7h-20v-6.9565z" fill="#165016"/>
    </g>
    <path d="m10 0 8.5 5.5-6 16.5-10-1.5 7.5-20.5z" fill="#80b3ff" fill-rule="evenodd"/>
    <path d="m5.9718 11.029c3.5 6 6.8079 1.1238 9.2079 3.655l-2.6797 7.3164-10-1.5 3.4718-9.4714z" fill="#165016" fill-rule="evenodd"/>
    <path d="m5.0969 16.248h-1.0721v-6.8318c-0.25811 0.2462-0.59662 0.49239-1.0155 0.73857-0.41892 0.2462-0.79516 0.43084-1.1287 0.55393v-1.0364c0.59959-0.28192 1.1237-0.62341 1.5724-1.0245 0.4487-0.40104 0.76636-0.79018 0.95299-1.1674h0.69092v8.7675zm7.4583-1.0746v1.0304h-5.7716c-0.00794-0.2581 0.033751-0.50628 0.12508-0.74453 0.14692-0.39311 0.38219-0.78026 0.70581-1.1615 0.32362-0.3812 0.79118-0.82195 1.4027-1.3223 0.94902-0.77827 1.5903-1.3947 1.9239-1.8494 0.33354-0.45465 0.50032-0.88449 0.50032-1.2895-5e-6 -0.42487-0.15189-0.78323-0.45565-1.0751-0.30377-0.29185-0.69986-0.43777-1.1883-0.43778-0.51621 7.9e-6 -0.92917 0.15487-1.2389 0.46458-0.30972 0.30973-0.46657 0.73858-0.47054 1.2865l-1.1019-0.11317c0.075445-0.82195 0.35936-1.4483 0.85174-1.8792 0.49238-0.43082 1.1535-0.64624 1.9834-0.64625 0.83784 8.8e-6 1.501 0.2323 1.9894 0.69688 0.4884 0.46459 0.73261 1.0404 0.73261 1.7273-6e-6 0.34944-0.07148 0.69291-0.21442 1.0304-0.14296 0.33752-0.38021 0.69291-0.71177 1.0662-0.33157 0.37326-0.88252 0.88549-1.6528 1.5367-0.64327 0.54003-1.0562 0.90634-1.2389 1.0989-0.18266 0.19259-0.33355 0.38616-0.45267 0.58073h4.2825zm1.1615-1.2746 1.0721-0.14295c0.12309 0.60754 0.33255 1.0453 0.62838 1.3133 0.29582 0.26803 0.65617 0.40204 1.0811 0.40204 0.50429 0 0.93016-0.17472 1.2776-0.52415 0.34744-0.34943 0.52116-0.78225 0.52117-1.2985-5e-6 -0.49238-0.16082-0.89839-0.48245-1.218-0.32164-0.31964-0.73063-0.47947-1.227-0.47947-0.20251 4e-6 -0.45466 0.03971-0.75644 0.11912l0.11912-0.94108c0.07147 0.0079 0.12905 0.01192 0.17273 0.01191 0.45664 5e-6 0.86762-0.11912 1.2329-0.35737 0.36531-0.23824 0.54797-0.60554 0.54797-1.1019-4e-6 -0.3931-0.13303-0.71871-0.39906-0.97682-0.26605-0.25809-0.60952-0.38715-1.0304-0.38715-0.41694 7.9e-6 -0.76438 0.13104-1.0423 0.39311-0.27796 0.26208-0.45664 0.65519-0.53606 1.1793l-1.0721-0.1906c0.13104-0.71871 0.42885-1.2756 0.89343-1.6707 0.46458-0.39509 1.0423-0.59263 1.7333-0.59264 0.47649 8.8e-6 0.91527 0.10226 1.3163 0.30674 0.40105 0.2045 0.70779 0.48345 0.92023 0.83685 0.21243 0.35341 0.31865 0.72865 0.31866 1.1257-5e-6 0.37723-0.10126 0.72071-0.30377 1.0304-0.20252 0.30973-0.50231 0.55592-0.89939 0.73857 0.5162 0.11913 0.91725 0.36631 1.2032 0.74155 0.28589 0.37524 0.42884 0.84479 0.42885 1.4086-6e-6 0.7624-0.27796 1.4086-0.83387 1.9387-0.55592 0.5301-1.2587 0.79515-2.1085 0.79515-0.76637 0-1.4027-0.22832-1.909-0.68496-0.50628-0.45664-0.79515-1.0483-0.86663-1.775z" fill="#fff"/>
  </g>
</svg>
