<?xml version="1.0" encoding="UTF-8"?>
<svg width="22" height="22" version="1.0" xmlns="http://www.w3.org/2000/svg">
  <g fill-rule="evenodd">
    <rect y="2" width="22" height="17.501" fill="#80b3ff"/>
    <path d="m-1.045e-7 13.5c3.3 2.7625 18.7-2.8437 22-0.040627l-2e-6 6.5406h-22v-6.5z" fill="#165016"/>
    <path d="m14.728 10.652c0-3.6313-2.9471-6.5784-6.5784-6.5784v3.9471c0.02842-8.549e-4 0.05359 0 0.08223 0 1.4979 0 2.7136 1.1789 2.7136 2.6314-1e-6 0.76611-0.324 1.4514-0.86342 1.9324l-2.3947-2.3341v7.5h7.5l-2.3917-2.4523c1.1907-1.1907 1.9324-2.8304 1.9324-4.646l-1e-6 -1e-6z" fill="#fff"/>
  </g>
</svg>
