<?xml version="1.0" encoding="UTF-8"?>
<svg width="22" height="22" version="1.0" xmlns="http://www.w3.org/2000/svg" xmlns:xlink="http://www.w3.org/1999/xlink">
  <defs>
    <linearGradient id="linearGradient7078">
      <stop stop-color="#58f058" offset="0"/>
      <stop stop-color="#2ca02c" offset="1"/>
    </linearGradient>
    <radialGradient id="radialGradient5098" cx="1" cy="-1.5" r="4.5" gradientTransform="matrix(1.6353 -1.3063e-8 0 1.4264 -.8891 -.05656)" gradientUnits="userSpaceOnUse" xlink:href="#linearGradient7078"/>
    <radialGradient id="radialGradient5100" cx="16" cy="8.5" r="2.5" gradientTransform="matrix(2.0714 0 0 4.4 -17.143 -34.4)" gradientUnits="userSpaceOnUse" xlink:href="#linearGradient7078"/>
    <radialGradient id="radialGradient5102" cx="1.2432" cy="-1.5" r="4.5" gradientTransform="matrix(2.0154 1.8711e-8 -3.5985e-8 1.4264 -1.7837 -.05656)" gradientUnits="userSpaceOnUse" xlink:href="#linearGradient7078"/>
  </defs>
  <g>
    <g transform="matrix(.96552 0 0 1 .55172 0)">
      <g>
        <path transform="matrix(1.0556 0 0 1.6358 7.4444 6.0925)" d="m10 3-9 5.1962-4.8e-7 -5.1962 4.8e-7 -5.1962 9 5.1962z" fill="url(#radialGradient5098)"/>
        <rect x="16" y="3" width="5" height="16" fill="url(#radialGradient5100)"/>
        <path transform="matrix(1.0278 0 0 1.6358 -.27778 6.0925)" d="m10 3-9 5.1962-4.8e-7 -5.1962 4.8e-7 -5.1962 9 5.1962z" fill="url(#radialGradient5102)"/>
      </g>
      <path d="m0.75 2.5v8.5 8.5l4.625-4.25 3.125-2.875v7.125l4.75-4.25 2.75-2.4688v6.2188h5v-16h-5v6.2188l-2.75-2.4688-4.75-4.25v7.125l-3.125-2.875-4.625-4.25z" fill="none" stroke="#407f40" stroke-linecap="square" stroke-linejoin="round" stroke-miterlimit="5" stroke-width="1.5266"/>
    </g>
  </g>
</svg>
