<?xml version="1.0" encoding="UTF-8"?>
<svg width="22" height="22" version="1.0" xmlns="http://www.w3.org/2000/svg">
  <g fill-rule="evenodd">
    <g transform="matrix(.8 0 0 .7793 5.2 6.1934)" opacity=".5">
      <rect transform="matrix(.5 0 0 .53333 -1.05e-7 1.9333)" x="2" y="2" width="40" height="30" fill="#80b3ff" opacity="1"/>
      <path transform="matrix(.33333 0 0 .34783 .33333 -.47826)" d="m2 36c9 8.5 51-8.75 60-0.12499l-7e-6 20.125h-60v-20z" fill="#165016"/>
    </g>
    <g transform="matrix(.74087 -.30185 .29478 .7235 -1.4426 4.1684)">
      <rect transform="matrix(.5 0 0 .53333 -1.05e-7 1.9333)" x="2" y="2" width="40" height="30" fill="#80b3ff"/>
      <path transform="matrix(.33333 0 0 .34783 .33333 -.47826)" d="m2 36c9 8.5 51-8.75 60-0.12499l-7e-6 20.125h-60v-20z" fill="#165016"/>
    </g>
    <path d="m19.947 15.866-3.554 3.6958-3.5134-3.5044 2.1202-0.05742c-9.92e-4 -0.03421-0.0022-0.06824-0.0035-0.10211-0.03233-1.1335-0.41172-2.2749-1.0288-3.2727l2.4045-1.4894c0.85948 1.386 1.3795 2.989 1.4508 4.6576 0.0016 0.04351 0.0028 0.08687 0.0039 0.13005l2.1202-0.05742z" fill="#fff"/>
  </g>
</svg>
